<?xml version="1.0" encoding="UTF-8" standalone="no"?>
<!-- Created with Inkscape (http://www.inkscape.org/) -->

<svg
   width="84.482834mm"
   height="33.518494mm"
   viewBox="0 0 84.482833 33.518493"
   version="1.1"
   id="svg1"
   inkscape:version="1.3.2 (091e20ef0f, 2023-11-25)"
   sodipodi:docname="anul·lada.svg"
   inkscape:export-filename="anul·lada.png"
   inkscape:export-xdpi="96"
   inkscape:export-ydpi="96"
   xmlns:inkscape="http://www.inkscape.org/namespaces/inkscape"
   xmlns:sodipodi="http://sodipodi.sourceforge.net/DTD/sodipodi-0.dtd"
   xmlns="http://www.w3.org/2000/svg"
   xmlns:svg="http://www.w3.org/2000/svg">
  <sodipodi:namedview
     id="namedview1"
     pagecolor="#ffffff"
     bordercolor="#000000"
     borderopacity="0.25"
     inkscape:showpageshadow="2"
     inkscape:pageopacity="0.0"
     inkscape:pagecheckerboard="0"
     inkscape:deskcolor="#d1d1d1"
     inkscape:document-units="mm"
     inkscape:zoom="0.71713664"
     inkscape:cx="-284.46462"
     inkscape:cy="-62.05233"
     inkscape:window-width="1920"
     inkscape:window-height="1011"
     inkscape:window-x="0"
     inkscape:window-y="0"
     inkscape:window-maximized="1"
     inkscape:current-layer="layer1" />
  <defs
     id="defs1" />
  <g
     inkscape:label="Capa 1"
     inkscape:groupmode="layer"
     id="layer1"
     transform="translate(-77.948564,-114.53862)">
    <g
       id="g13"
       transform="matrix(2.6463612,0,0,2.6463612,-127.17444,-252.20279)"
       style="fill:#942323;fill-opacity:1">
      <g
         id="g14"
         transform="rotate(-15,93.473159,144.91611)">
        <path
           id="path9"
           style="fill:#942323;fill-opacity:1;stroke:none;stroke-width:0.4;stroke-dasharray:none;stroke-opacity:1"
           d="m 109.38293,142.62289 -0.46969,-1.3e-4 c -0.0766,0.0711 -0.15626,0.13869 -0.24127,0.19965 l 0.50015,2.6e-4 c 0.006,-0.025 0.0126,-0.0497 0.0229,-0.0741 0.003,-0.003 0.007,-0.006 0.0107,-0.009 0.0246,-0.0246 0.0483,-0.051 0.072,-0.077 -8.5e-4,0.007 0.002,0.0131 2e-5,0.0193 -0.01,0.0448 -0.0552,0.10511 -0.0922,0.1406 l 0.19795,3e-5 z m -0.97472,-9e-5 -1.52904,10e-5 c 0.004,0.0278 0.007,0.055 0.005,0.04 -0.003,-0.001 -0.006,-0.002 -0.008,-0.003 -7.1e-4,-0.0128 -0.002,-0.0274 -0.002,-0.0364 l -0.016,-1.5e-4 c 0.001,0.008 0.005,0.0281 0.006,0.0315 -0.0175,-0.007 -0.0339,-0.0163 -0.0521,-0.0212 -0.002,-0.004 -0.003,-0.007 -0.005,-0.0108 l -0.007,1.2e-4 c 0.002,0.005 1.4e-4,0.001 0.002,0.006 -0.014,-0.004 -0.0249,-0.004 -0.0385,-0.006 l -0.10278,3.1e-4 c -0.0401,0.0201 -0.12055,0.10445 -0.20381,0.19951 l 2.14264,8e-5 c -0.0545,-0.0597 -0.10809,-0.12038 -0.17433,-0.16602 -0.007,-0.005 -0.0171,-0.005 -0.0252,-0.008 0.004,-0.009 0.005,-0.017 0.009,-0.0259 z m -1.98119,3.9e-4 -1.74614,-3e-4 c -0.0273,0.008 -0.0543,0.0189 -0.0818,0.0257 -0.0414,0.0102 -0.0839,0.0155 -0.12608,0.0213 -0.008,-0.0157 -0.0155,-0.0315 -0.0212,-0.0469 l -0.88373,-3.3e-4 c 0.008,0.008 0.0174,0.014 0.0257,0.0219 -0.01,0.0403 -0.0121,0.08 -0.0109,0.12066 -0.0134,-0.007 -0.0288,-0.007 -0.0427,-0.012 0.005,-0.0457 0.0123,-0.0909 0.0277,-0.1306 l -0.24457,3.1e-4 c -9.6e-4,0.007 -0.002,0.0139 -0.003,0.0222 -1e-5,9e-5 -0.005,0.0471 -0.007,0.0651 -0.012,-0.001 -0.0242,-0.002 -0.036,-0.003 -0.0561,-0.006 -0.0949,-9.9e-4 -0.14122,-0.002 0.0386,-0.0324 0.0882,-0.057 0.13701,-0.0821 l -4.799468,1.2e-4 c -0.01157,0.007 -0.02604,0.0139 -0.03722,0.0211 -0.0041,-0.007 -0.0088,-0.0141 -0.01305,-0.0212 l -0.402747,-3.8e-4 c 0.0011,4.5e-4 0.0024,4.9e-4 0.0035,9.3e-4 l 5e-4,1.4e-4 c -0.0039,0.003 -0.0082,0.006 -0.01206,0.009 -0.0059,-0.004 -0.0093,-0.006 -0.01442,-0.0101 l -1.30741,-4.3e-4 c -0.02729,0.0234 -0.0546,0.0468 -0.08191,0.0701 l -0.0052,-0.005 c -0.01722,-0.022 -0.03559,-0.0432 -0.05318,-0.0651 l -1.088177,-1e-5 c 0.02949,0.006 0.05897,0.0117 0.08867,0.0165 l -1.32e-4,4.9e-4 c 0.0022,0.0151 0.0049,0.03 0.0066,0.0452 -0.02063,0.0163 -0.04229,0.0313 -0.06225,0.0486 -0.01402,0.006 -0.033,0.0141 -0.04771,0.0203 -0.007,-0.005 -0.01343,-0.009 -0.0199,-0.0136 -0.02164,-0.0423 -0.04626,-0.0805 -0.07209,-0.11829 l -0.05238,-1.6e-4 c 0.0042,0.001 0.0094,4.5e-4 0.0135,0.002 0.01977,0.007 0.03446,0.0186 0.038,0.0359 0.0031,0.0156 -0.0209,0.009 -0.04568,0.003 l -4.98e-4,-1.3e-4 c -0.02588,-0.0142 -0.05295,-0.0268 -0.0798,-0.0396 l -3.021594,-2e-4 c -0.03979,0.0455 -0.06872,0.10203 -0.115252,0.1446 -0.02594,0.0184 -0.05,0.04 -0.0779,0.0551 l 0.858658,3e-5 c -0.0077,-0.007 -0.01514,-0.0154 -0.02269,-0.0232 0.0084,-0.008 0.01721,-0.0155 0.02595,-0.023 0.03408,-0.0159 0.06611,-0.0323 0.102097,-0.0476 0.04801,-0.0204 0.09954,-0.0338 0.149166,-0.0515 -0.05218,0.0386 -0.09741,0.0926 -0.143211,0.14513 l 1.867108,8e-5 c 0.01793,-0.018 0.0358,-0.0365 0.04237,-0.0603 2.13e-4,-2.6e-4 6.2e-5,-7.7e-4 2.59e-4,-9.7e-4 0.05037,0.0137 0.101221,0.0261 0.151244,0.0405 0.02032,0.006 0.04015,0.0139 0.0601,0.0213 l 0.82983,-2e-4 c 0.01138,-0.007 0.02447,-0.0153 0.03611,-0.0229 0.0024,-0.001 0.0058,-0.002 0.0082,-0.003 l 5e-4,1.4e-4 c 0.0056,0.009 0.0089,0.0178 0.01435,0.0263 l 0.09002,-5.2e-4 c -0.01349,-0.016 -0.02552,-0.0331 -0.04104,-0.0485 0.05145,-0.0174 0.102377,-0.0362 0.153592,-0.0541 l -1.34e-4,5.1e-4 c 0.02612,0.0192 0.05153,0.0396 0.07697,0.0602 -0.0061,0.0141 -0.01282,0.0281 -0.01873,0.0421 l 1.856956,3e-5 c 0.0029,-0.002 0.0054,-0.005 0.0083,-0.007 -2.98e-4,0.002 -7.43e-4,0.004 -0.0013,0.007 l 0.552543,3.9e-4 c 0.0376,-0.0203 0.07293,-0.0462 0.113103,-0.0607 l 3.66e-4,6.3e-4 c 0.02165,0.0193 0.03984,0.0426 0.06395,0.0589 8.69e-4,5.2e-4 0.0021,4e-4 0.003,8e-4 l 0.356249,2.1e-4 c 0.05117,-0.0124 0.102533,-0.0239 0.150944,-0.0462 l 5e-4,1.4e-4 c 3.26e-4,4.6e-4 4.57e-4,6.8e-4 9.31e-4,0.002 0.0042,0.0147 0.0085,0.0294 0.01279,0.0441 l 0.42958,8e-5 c 0.01457,-0.0169 0.02339,-0.0338 0.03856,-0.0501 0.0164,0.006 0.0317,0.0147 0.0491,0.0183 0.0296,0.006 0.0599,0.005 0.0897,0.005 -1.1e-4,0.002 -0.005,0.0248 -0.006,0.0269 h 0.0348 c -0.0143,-0.006 -0.0271,-0.0125 -0.0276,-0.0267 0.01,-5.7e-4 0.0181,-3.2e-4 0.0273,-0.002 0.002,0.01 0.004,0.0191 0.006,0.0283 l 1.69275,-1.1e-4 c -0.0202,-0.0284 -0.0399,-0.0572 -0.06,-0.0856 0.11777,-0.0204 0.23568,-0.0397 0.35418,-0.056 -0.042,0.0482 -0.0857,0.0947 -0.12939,0.14134 l 3.57953,4.3e-4 c 0.0232,-0.0214 0.0485,-0.0415 0.071,-0.0634 -0.008,0.0265 -0.0119,0.0424 -0.0175,0.0632 l 0.77793,-1.9e-4 c 0.0474,-0.0667 0.0945,-0.13352 0.14323,-0.19917 z m -2.0731,0.0319 c 0.008,0.0104 0.0185,0.018 0.0267,0.0281 -0.0486,0.005 -0.0973,0.01 -0.14568,0.0166 0.039,-0.0167 0.0791,-0.0303 0.11895,-0.0446 z m -1.87721,0.004 5.1e-4,1.3e-4 c 0.007,0.005 0.0132,0.0108 0.0197,0.0165 -0.003,0.004 -0.008,0.009 -0.0116,0.0124 -0.003,-0.0102 -0.005,-0.0189 -0.008,-0.0289 z m -0.1418,0.0321 c 0.004,0.0105 0.0105,0.0197 0.0149,0.0302 -0.0218,0.0252 -0.0412,0.0521 -0.0581,0.0812 -0.0209,-4.2e-4 -0.0412,-0.004 -0.0627,-0.002 -5.2e-4,1.7e-4 -6.4e-4,5e-5 -0.001,2.3e-4 l 0.0126,-0.0122 c 0.0199,-0.0198 0.0641,-0.0678 0.0941,-0.0978 z m -0.758,0.0596 c 9e-4,5.1e-4 0.003,6.4e-4 0.004,0.002 10e-4,0.003 0.003,0.005 0.004,0.008 -0.002,-0.003 -0.005,-0.006 -0.008,-0.0104 z m 0.007,0.003 c 0.0446,0.0213 0.0879,0.0486 0.0579,0.0615 -0.005,0.002 -0.008,-1.4e-4 -0.0125,7.8e-4 -0.0113,-0.0146 -0.0229,-0.029 -0.0343,-0.0435 -0.003,-0.007 -0.007,-0.0124 -0.0111,-0.0185 z m -0.0623,0.007 -1.4e-4,5e-4 c 0.008,0.0104 0.0138,0.0213 0.0214,0.0319 -0.011,-0.007 -0.0223,-0.0111 -0.0331,-0.0182 0.003,-0.006 0.006,-0.009 0.008,-0.0133 9.8e-4,-1.8e-4 0.002,-4.2e-4 0.004,-10e-4 z m -1.17977,-0.0695 c -0.0157,0.032 -0.028,0.064 -0.0365,0.0962 -0.0343,0.006 -0.0767,0.008 -0.0668,0.0158 -0.0257,0.006 -0.0519,0.0121 -0.0755,0.0161 -0.007,-0.0177 -0.0164,-0.0342 -0.026,-0.0508 0.0333,0.006 0.0653,0.009 0.0859,-0.009 0.0122,-0.0108 0.0212,-0.0248 0.0323,-0.0368 0.0167,-0.006 0.034,-0.0115 0.0505,-0.0169 0.0121,-0.004 0.0239,-0.0104 0.036,-0.0145 z m -0.742914,-0.0626 c 0.0026,0.002 0.0048,0.004 0.0065,0.006 -0.03776,0.0459 -0.07354,0.0932 -0.105825,0.14337 -0.01353,-0.0159 -0.0287,-0.0305 -0.04209,-0.0466 0.04984,-0.0299 0.09569,-0.0658 0.140865,-0.10243 z m 0.05756,0.0427 c 0.0033,0.003 0.0069,0.005 0.01068,0.008 -0.0011,0.003 -0.0016,0.006 -0.0028,0.009 -0.0026,-0.006 -0.0054,-0.0108 -0.0079,-0.0165 z m 0.328552,0.10356 2.4e-4,0.001 c 2.1e-4,5.4e-4 -0.003,0.011 -0.003,0.0116 5.3e-4,-0.003 -7.3e-4,-0.005 3e-4,-0.009 4.8e-4,-9.1e-4 10e-4,-0.002 0.002,-0.004 z m -1.625918,-0.0976 c 0.0026,0.006 0.0051,0.0117 0.0077,0.0171 -0.0052,0.004 -0.0098,0.009 -0.01462,0.0127 0.0026,-0.01 0.0043,-0.0199 0.0069,-0.0297 z m -1.816867,0.046 4.99e-4,1.3e-4 c 0.0031,0.004 0.0094,0.0129 0.01264,0.0167 -0.0094,0.008 -0.01904,0.0162 -0.02849,0.0245 -7.6e-5,-0.0113 0.0017,-0.0224 0.0026,-0.0336 0.005,5.7e-4 0.0096,0.003 0.01448,0.004 0.0031,1e-5 -0.0018,-0.008 -0.0017,-0.0117 z m -0.240604,-0.005 -1.35e-4,5e-4 c -0.0011,0.004 -0.0044,0.008 -0.0054,0.0119 -0.0048,-0.005 -0.0093,-0.009 -0.0138,-0.0144 0.0061,5.9e-4 0.0128,0.001 0.01924,0.002 z m -4.252196,-0.0956 -0.73356,3.1e-4 c -5.37e-4,0.0232 4.63e-4,0.0466 -5.51e-4,0.0699 -0.0042,0.004 -0.0076,0.008 -0.01084,0.0126 -0.02993,0.0101 -0.06098,0.0144 -0.09115,0.0227 -0.02344,-0.002 -0.0473,-1.5e-4 -0.07094,-7.9e-4 0.02721,-0.0323 0.05409,-0.0687 0.08197,-0.10429 l -1.074761,-1.5e-4 c -0.0057,0.005 -0.0113,0.009 -0.01576,0.0129 -4.48e-4,-0.002 -7.34e-4,-0.005 -0.0014,-0.007 0.0028,-0.002 0.0059,-0.005 0.0085,-0.006 l -0.349346,-1e-5 c -0.01443,0.0198 -0.03261,0.0363 -0.04671,0.0565 -0.03409,-0.0122 -0.06698,-0.0286 -0.100054,-0.0439 0.0076,-0.004 0.01674,-0.009 0.02478,-0.0126 l -0.42858,1.8e-4 c -0.0098,0.011 -0.02821,0.0312 -0.03193,0.0353 -0.003,0.003 -0.01204,0.0136 -0.0161,0.0181 0.01194,-0.0179 0.02385,-0.0356 0.03575,-0.0536 l -0.540895,5e-5 c -0.0055,0.004 -0.01082,0.008 -0.01636,0.0111 -0.0014,-0.003 -0.0028,-0.007 -0.0039,-0.0114 l -0.167469,5e-5 c 4.4e-5,0.0118 -5.43e-4,0.0237 -4.55e-4,0.0357 -0.0095,-0.0108 -0.01999,-0.0212 -0.02941,-0.032 0.0021,-0.002 0.0044,-0.002 0.0068,-0.003 l -0.542392,-3.5e-4 c -0.02126,0.0141 -0.04267,0.028 -0.06341,0.043 -0.0014,-0.009 -0.0052,-0.03 -0.0073,-0.0427 l -3.194956,-10e-5 c -0.0062,0.0175 -0.01225,0.0388 -0.01818,0.0539 -0.0062,0.0152 -0.013,0.0299 -0.02011,0.0449 -0.0146,-0.0322 -0.02546,-0.0659 -0.03819,-0.0991 l -0.151432,1.1e-4 c 0.01081,0.0269 0.02125,0.054 0.03426,0.0798 0.03634,0.0375 0.07152,0.0758 0.106879,0.11425 -0.003,0.002 -0.0056,0.004 -0.0085,0.006 l 0.852897,-4.4e-4 c 0.01885,-0.011 0.03707,-0.0229 0.05609,-0.0336 l 0.0015,-0.002 c 0.01808,0.0121 0.03541,0.0239 0.05354,0.0358 l 0.421056,-5e-5 c 0.0045,-0.0154 0.009,-0.0306 0.01342,-0.0462 0.0063,-3.8e-4 0.0239,-8.5e-4 0.02828,-0.002 0.06144,-0.004 0.122718,-0.008 0.184199,-0.0106 l -1.32e-4,4.9e-4 c -0.02576,0.0198 -0.05203,0.039 -0.0782,0.0582 h 2.146396 c -9.91e-4,-0.0176 -0.0017,-0.0347 -0.0035,-0.0528 0.0027,-0.002 0.0042,-0.005 0.0069,-0.007 0.04258,-0.0368 0.09143,-0.0654 0.140584,-0.0934 l 3.67e-4,6.2e-4 c 0.0041,0.004 0.0086,0.006 0.01293,0.01 0.0065,0.0326 0.0061,0.0686 -2.5e-5,0.10592 -0.02528,0.0129 -0.05095,0.0249 -0.07634,0.0373 l 1.112244,3e-5 c 0.03707,-0.041 0.08855,-0.0985 0.116929,-0.1249 l -2.41e-4,-10e-4 c 0.03657,0.0293 0.07317,0.0569 0.111083,0.0806 -8.57e-4,8.1e-4 -0.0015,0.002 -0.0023,0.005 -0.0034,0.0137 -0.008,0.0272 -0.01194,0.0407 l 2.203051,2e-4 c 0.06608,-0.0576 0.130098,-0.11713 0.182078,-0.19035 0.0026,-0.003 0.003,-0.006 0.0047,-0.009 z m -1.282314,0.0876 4.99e-4,1.4e-4 c 0.0075,0.006 0.01447,0.0111 0.02151,0.0176 -0.02417,0.0253 -0.04824,0.0491 -0.07001,0.0716 -0.02834,6.9e-4 -0.05674,5.3e-4 -0.08525,6.6e-4 9.15e-4,-0.0111 -3.8e-5,-0.0223 9.03e-4,-0.0335 0.04372,-0.0199 0.08825,-0.0377 0.132324,-0.0566 z m -3.075716,-0.0318 c 0.0035,0.0215 8.96e-4,0.004 0.0066,0.0371 -0.01655,-0.005 -0.03418,-0.0133 -0.05086,-0.0198 0.01476,-0.006 0.0299,-0.0118 0.04429,-0.0175 z m -2.048786,0.077 c 0.01651,0.0106 0.02276,0.0144 -0.01031,0.004 0.0034,-10e-4 0.0066,-0.002 0.01031,-0.004 z m 0.0301,0.0214 c 0.0024,0.003 0.006,0.005 0.0084,0.008 -0.0011,0.008 1.49e-4,0.0157 -8.52e-4,0.0233 -0.01699,-0.0108 -0.0346,-0.0213 -0.05259,-0.0334 0.01491,0.002 0.02955,6.7e-4 0.04502,0.002 z m -1.244276,-0.15418 -5.586416,4e-5 c -0.0058,0.0211 -0.01213,0.0421 -0.01748,0.0632 -0.0094,0.0457 -0.02338,0.091 -0.03651,0.13627 l 2.174088,4.7e-4 c 0.01911,-0.0172 0.04052,-0.0317 0.05923,-0.0494 0.0072,-0.007 0.04662,-0.0466 0.08541,-0.0852 l 5e-4,1.3e-4 c -1.38e-4,6.7e-4 -3.85e-4,9.3e-4 -5.18e-4,0.002 -0.0089,0.0449 -0.02479,0.0879 -0.03689,0.1319 l 0.415031,4.6e-4 c 0.05204,-0.0672 0.108948,-0.13007 0.180402,-0.1801 0.01511,-0.0127 0.0429,0.008 0.05885,-0.004 7.71e-4,-5.6e-4 0.0013,-6.8e-4 0.0025,-0.001 -0.0057,0.0289 -0.0118,0.0583 -0.01847,0.0871 -0.01535,0.0125 -0.03579,0.0284 -0.04956,0.0392 -0.02235,0.0197 -0.04457,0.0396 -0.06718,0.059 l 2.059146,1.7e-4 c 0.04056,-0.0533 0.08567,-0.1064 0.137397,-0.15739 -0.0026,0.009 -0.0024,0.0174 6.66e-4,0.0253 -0.03989,0.0449 -0.0813,0.0884 -0.122554,0.13194 l 0.784825,4e-5 c 9.2e-5,-0.002 -3.48e-4,-0.005 -2.16e-4,-0.007 -0.0014,-0.0267 -0.0093,-0.12668 -0.0222,-0.19267 z m 21.411909,6.4237 c -0.0351,-0.006 -0.066,-0.0146 -0.10012,-0.0216 9e-4,4.9e-4 0.002,7.9e-4 0.002,0.001 0.0328,0.0109 0.0653,0.0167 0.0984,0.0202 z m -24.982125,-6.33709 c 0.0024,0.003 0.0043,0.006 0.0069,0.008 0.0017,0.001 -0.008,0.002 -0.0075,7e-5 -7.6e-5,-0.003 7.54e-4,-0.006 5.26e-4,-0.008 z m -0.438969,-0.0828 c 0.0082,1.4e-4 0.01955,0.008 0.02965,0.0131 -0.0711,0.0563 -0.142565,0.11371 -0.216171,0.16784 -0.01888,-0.0169 -0.03902,-0.0315 -0.05836,-0.0477 0.0088,-0.0174 0.01748,-0.0343 0.02619,-0.0518 0.0652,-0.0459 0.134861,-0.0833 0.218596,-0.0811 z m -1.744206,-0.004 -1.112244,-3e-5 3.2e-5,0.19956 0.09364,-7e-5 c 0.0079,-0.0229 0.013,-0.047 0.02186,-0.0696 0.0062,0.004 0.01216,0.009 0.01889,0.0133 0.01427,0.009 0.118188,-0.054 0.124079,-0.0577 0.0023,0.007 0.0041,0.0135 0.0058,0.0203 -0.0071,0.016 -0.03058,0.0634 -0.04445,0.094 l 0.904163,-9e-5 c -0.0046,-0.0663 -0.01045,-0.13241 -0.01182,-0.19951 z m -0.990581,0.11496 c 4.97e-4,5.7e-4 3.63e-4,7.7e-4 0.0013,0.001 0.0014,0.002 4.08e-4,0.001 -0.0018,5.5e-4 2.53e-4,-6.4e-4 2.68e-4,-9.7e-4 5.17e-4,-0.002 z" />
        <path
           id="path9-7"
           style="fill:#942323;fill-opacity:1;stroke:none;stroke-width:0.4;stroke-dasharray:none;stroke-opacity:1"
           d="m 77.562927,147.20943 0.46969,1.3e-4 c 0.0766,-0.0711 0.15627,-0.13868 0.24127,-0.19965 l -0.50014,-2.5e-4 c -0.006,0.025 -0.0126,0.0497 -0.023,0.0741 -0.003,0.003 -0.007,0.006 -0.0107,0.009 -0.0246,0.0246 -0.0483,0.051 -0.072,0.077 8.5e-4,-0.007 -0.002,-0.0131 -1e-5,-0.0193 0.01,-0.0448 0.0552,-0.10511 0.0922,-0.1406 l -0.19794,-3e-5 z m 0.97474,9e-5 1.52903,-1e-4 c -0.004,-0.0278 -0.007,-0.055 -0.005,-0.0399 0.003,0.001 0.006,0.002 0.008,0.003 7.1e-4,0.0128 0.002,0.0274 0.002,0.0364 l 0.016,1.4e-4 c -0.002,-0.008 -0.005,-0.0281 -0.006,-0.0315 0.0175,0.007 0.0339,0.0163 0.0521,0.0212 0.002,0.004 0.003,0.007 0.005,0.0108 l 0.007,-1.2e-4 c -9e-4,-0.004 -1.6e-4,-0.001 -0.002,-0.006 0.014,0.004 0.0249,0.004 0.0385,0.006 l 0.10278,-3e-4 c 0.0401,-0.0201 0.12054,-0.10445 0.20379,-0.19952 l -2.14263,-7e-5 c 0.0545,0.0597 0.10809,0.12037 0.17433,0.16601 0.007,0.005 0.0171,0.005 0.0252,0.008 -0.004,0.009 -0.005,0.017 -0.009,0.0259 z m 1.98117,-3.8e-4 1.74615,2.9e-4 c 0.0273,-0.008 0.0543,-0.0189 0.0818,-0.0257 0.0414,-0.0103 0.0839,-0.0155 0.12607,-0.0213 0.008,0.0157 0.0155,0.0315 0.0212,0.0469 l 0.88373,3.3e-4 c -0.008,-0.008 -0.0174,-0.014 -0.0257,-0.0219 0.01,-0.0403 0.0121,-0.08 0.0109,-0.12066 0.0134,0.007 0.0288,0.007 0.0428,0.012 -0.005,0.0457 -0.0122,0.0909 -0.0277,0.1306 l 0.24457,-3.1e-4 c 9.7e-4,-0.007 0.002,-0.0139 0.003,-0.0222 2e-5,-9e-5 0.005,-0.0471 0.007,-0.0651 0.012,0.001 0.0242,0.002 0.036,0.003 0.0561,0.006 0.0949,9.9e-4 0.14123,0.002 -0.0386,0.0324 -0.0882,0.057 -0.13701,0.0821 l 4.799457,-1.1e-4 c 0.01157,-0.007 0.02604,-0.0139 0.03721,-0.0211 0.0041,0.007 0.0088,0.0141 0.01305,0.0212 l 0.402748,3.8e-4 c -0.0011,-4.4e-4 -0.0024,-4.8e-4 -0.0035,-9.3e-4 l -4.99e-4,-1.3e-4 c 0.0039,-0.003 0.0082,-0.006 0.01206,-0.009 0.0059,0.004 0.0093,0.006 0.01442,0.0101 l 1.307411,4.2e-4 c 0.0273,-0.0234 0.0546,-0.0468 0.08191,-0.0701 l 0.0052,0.005 c 0.01722,0.022 0.03559,0.0432 0.05318,0.0651 h 1.088177 c -0.02949,-0.006 -0.05897,-0.0117 -0.08867,-0.0165 l 1.32e-4,-5e-4 c -0.0022,-0.0151 -0.0049,-0.03 -0.0066,-0.0451 0.02063,-0.0163 0.04229,-0.0313 0.06225,-0.0487 0.01402,-0.006 0.033,-0.0141 0.04771,-0.0203 0.007,0.005 0.01343,0.009 0.01989,0.0136 0.02164,0.0423 0.04626,0.0805 0.07209,0.11829 l 0.05238,1.7e-4 c -0.0042,-0.001 -0.0094,-4.5e-4 -0.0135,-0.002 -0.01977,-0.007 -0.03446,-0.0185 -0.038,-0.0359 -0.0031,-0.0156 0.0209,-0.009 0.04568,-0.003 l 4.98e-4,1.3e-4 c 0.02588,0.0142 0.05295,0.0268 0.0798,0.0396 l 3.021593,1.9e-4 c 0.03979,-0.0455 0.06872,-0.10203 0.115252,-0.1446 0.02594,-0.0184 0.05,-0.04 0.0779,-0.0551 l -0.858658,-3e-5 c 0.0077,0.007 0.01514,0.0154 0.02269,0.0232 -0.0084,0.008 -0.01721,0.0155 -0.02595,0.023 -0.03408,0.0159 -0.06611,0.0323 -0.102098,0.0476 -0.04801,0.0204 -0.09954,0.0338 -0.149166,0.0515 0.05218,-0.0386 0.09741,-0.0926 0.143211,-0.14513 l -1.867107,-7e-5 c -0.01793,0.018 -0.0358,0.0365 -0.04237,0.0603 -2.13e-4,2.5e-4 -6.1e-5,7.7e-4 -2.58e-4,9.6e-4 -0.05037,-0.0137 -0.101221,-0.0261 -0.151244,-0.0405 -0.02032,-0.006 -0.04015,-0.0139 -0.0601,-0.0213 l -0.82983,2e-4 c -0.01138,0.007 -0.02447,0.0153 -0.03611,0.0229 -0.0024,0.001 -0.0058,0.002 -0.0082,0.003 l -4.99e-4,-1.3e-4 c -0.0056,-0.009 -0.0089,-0.0178 -0.01435,-0.0263 l -0.09002,5.1e-4 c 0.01349,0.016 0.02552,0.0331 0.04104,0.0485 -0.05145,0.0174 -0.102378,0.0362 -0.153593,0.0541 l 1.35e-4,-5e-4 c -0.02612,-0.0192 -0.05153,-0.0396 -0.07697,-0.0602 0.0061,-0.0141 0.01282,-0.0281 0.01873,-0.0421 l -1.856957,-3e-5 c -0.0029,0.002 -0.0054,0.005 -0.0083,0.007 2.99e-4,-0.002 7.44e-4,-0.004 0.0013,-0.007 l -0.552543,-4e-4 c -0.0376,0.0203 -0.07293,0.0462 -0.113103,0.0607 l -3.67e-4,-6.3e-4 c -0.02165,-0.0193 -0.03984,-0.0426 -0.06395,-0.0589 -8.69e-4,-5.3e-4 -0.0021,-4.1e-4 -0.003,-8.1e-4 l -0.356249,-2.1e-4 c -0.05117,0.0124 -0.102533,0.0239 -0.150945,0.0462 l -4.99e-4,-1.3e-4 c -3.26e-4,-4.6e-4 -4.57e-4,-6.9e-4 -9.31e-4,-0.002 -0.0042,-0.0147 -0.0085,-0.0294 -0.01279,-0.0441 l -0.42958,-7e-5 c -0.01457,0.0169 -0.0234,0.0338 -0.03858,0.0501 -0.0164,-0.006 -0.0317,-0.0147 -0.0491,-0.0183 -0.0296,-0.006 -0.0599,-0.005 -0.0897,-0.005 1.1e-4,-0.002 0.005,-0.0248 0.006,-0.0268 h -0.0348 c 0.0143,0.006 0.0272,0.0124 0.0276,0.0267 -0.009,5.7e-4 -0.0181,3.1e-4 -0.0273,0.002 -0.002,-0.01 -0.003,-0.019 -0.006,-0.0283 l -1.69274,1.1e-4 c 0.0202,0.0284 0.0399,0.0572 0.06,0.0856 -0.11777,0.0204 -0.23568,0.0397 -0.35418,0.056 0.042,-0.0482 0.0857,-0.0947 0.12939,-0.14135 l -3.57953,-4.2e-4 c -0.0233,0.0214 -0.0485,0.0415 -0.071,0.0634 0.008,-0.0265 0.0119,-0.0424 0.0175,-0.0632 l -0.77794,1.9e-4 c -0.0474,0.0667 -0.0945,0.13351 -0.14323,0.19916 z m 2.0731,-0.0319 c -0.008,-0.0104 -0.0185,-0.018 -0.0267,-0.0281 0.0486,-0.005 0.0973,-0.01 0.14568,-0.0166 -0.0391,0.0167 -0.0791,0.0302 -0.11896,0.0446 z m 1.87721,-0.004 -5e-4,-1.4e-4 c -0.007,-0.005 -0.0133,-0.0108 -0.0197,-0.0165 0.003,-0.004 0.008,-0.009 0.0116,-0.0124 0.003,0.0102 0.005,0.0189 0.008,0.0289 z m 0.14181,-0.0321 c -0.004,-0.0105 -0.0105,-0.0197 -0.0149,-0.0302 0.0218,-0.0252 0.0412,-0.0521 0.0581,-0.0812 0.0209,4.3e-4 0.0412,0.004 0.0627,0.002 5.2e-4,-1.8e-4 6.6e-4,-6e-5 10e-4,-2.4e-4 l -0.0126,0.0122 c -0.0199,0.0198 -0.0641,0.0678 -0.0941,0.0978 z m 0.75799,-0.0596 c -8.9e-4,-5.1e-4 -0.003,-6.1e-4 -0.004,-0.002 -0.001,-0.003 -0.003,-0.005 -0.004,-0.008 0.002,0.003 0.004,0.006 0.008,0.0104 z m -0.006,-0.003 c -0.0446,-0.0213 -0.0878,-0.0486 -0.0579,-0.0615 0.005,-0.002 0.008,1.4e-4 0.0125,-7.8e-4 0.0113,0.0146 0.0229,0.029 0.0343,0.0435 0.003,0.007 0.007,0.0124 0.0111,0.0185 z m 0.0623,-0.007 1.3e-4,-5e-4 c -0.008,-0.0104 -0.0138,-0.0213 -0.0214,-0.0319 0.011,0.007 0.0223,0.0112 0.0331,0.0182 -0.003,0.006 -0.007,0.009 -0.009,0.0132 -9.8e-4,1.8e-4 -0.002,4.5e-4 -0.003,0.001 z m 1.17977,0.0695 c 0.0158,-0.032 0.0279,-0.0641 0.0364,-0.0962 0.0343,-0.006 0.0767,-0.008 0.0669,-0.0158 0.0257,-0.006 0.0519,-0.0121 0.0754,-0.0161 0.007,0.0177 0.0164,0.0342 0.0259,0.0508 -0.0333,-0.006 -0.0652,-0.009 -0.0859,0.009 -0.0122,0.0108 -0.0212,0.0248 -0.0323,0.0368 -0.0167,0.006 -0.0339,0.0115 -0.0505,0.0169 -0.0121,0.004 -0.0239,0.0104 -0.036,0.0145 z m 0.742906,0.0626 c -0.0026,-0.002 -0.0048,-0.004 -0.0065,-0.006 0.03776,-0.0459 0.07354,-0.0932 0.105824,-0.14338 0.01353,0.016 0.0287,0.0305 0.04209,0.0466 -0.04984,0.0299 -0.09569,0.0658 -0.140865,0.10243 z m -0.05756,-0.0428 c -0.0033,-0.003 -0.0069,-0.005 -0.01068,-0.008 0.0011,-0.003 0.0016,-0.006 0.0028,-0.009 0.0026,0.006 0.0054,0.0108 0.0079,0.0165 z m -0.328556,-0.10357 -2.3e-4,-10e-4 c -2.1e-4,-5.3e-4 0.003,-0.011 0.003,-0.0116 -5.3e-4,0.003 7.3e-4,0.005 -3.1e-4,0.009 -4.7e-4,9.1e-4 -0.001,0.002 -0.002,0.004 z m 1.625923,0.0976 c -0.0026,-0.006 -0.0051,-0.0117 -0.0077,-0.0171 0.0052,-0.004 0.0098,-0.009 0.01462,-0.0126 -0.0026,0.01 -0.0043,0.0199 -0.0069,0.0297 z m 1.816867,-0.046 -4.99e-4,-1.4e-4 c -0.0031,-0.004 -0.0094,-0.0129 -0.01264,-0.0167 0.0094,-0.008 0.01904,-0.0162 0.02849,-0.0245 7.6e-5,0.0113 -0.0017,0.0224 -0.0026,0.0336 -0.005,-5.7e-4 -0.0096,-0.003 -0.01448,-0.004 -0.0031,-1e-5 0.0018,0.008 0.0017,0.0116 z m 0.240604,0.005 1.35e-4,-5e-4 c 0.0011,-0.004 0.0044,-0.008 0.0054,-0.0119 0.0048,0.005 0.0093,0.009 0.0138,0.0144 -0.0061,-5.9e-4 -0.0128,-0.001 -0.01924,-0.002 z m 4.252196,0.0956 0.73356,-3.1e-4 c 5.36e-4,-0.0233 -4.63e-4,-0.0466 5.51e-4,-0.0699 0.0042,-0.004 0.0076,-0.008 0.01084,-0.0126 0.02993,-0.0101 0.06098,-0.0144 0.09115,-0.0227 0.02344,0.002 0.0473,1.5e-4 0.07094,7.9e-4 -0.02721,0.0323 -0.0541,0.0687 -0.08197,0.10428 l 1.074762,1.6e-4 c 0.0057,-0.005 0.0113,-0.009 0.01576,-0.0129 4.48e-4,0.002 7.34e-4,0.005 0.0014,0.007 -0.0028,0.002 -0.0059,0.005 -0.0085,0.006 l 0.349346,2e-5 c 0.01443,-0.0198 0.03261,-0.0363 0.04671,-0.0565 0.03409,0.0122 0.06698,0.0286 0.100053,0.0439 -0.0076,0.004 -0.01673,0.009 -0.02478,0.0126 l 0.428579,-1.8e-4 c 0.0098,-0.011 0.02821,-0.0312 0.03194,-0.0353 0.003,-0.003 0.01204,-0.0137 0.0161,-0.0181 -0.01194,0.0179 -0.02385,0.0356 -0.03575,0.0536 l 0.540894,-6e-5 c 0.0055,-0.004 0.01082,-0.008 0.01636,-0.0111 0.0014,0.003 0.0028,0.007 0.0039,0.0114 l 0.167468,-6e-5 c -4.4e-5,-0.0118 5.44e-4,-0.0237 4.55e-4,-0.0357 0.0095,0.0108 0.01999,0.0212 0.02941,0.032 -0.0021,0.002 -0.0044,0.002 -0.0068,0.003 l 0.542392,3.4e-4 c 0.02126,-0.0141 0.04267,-0.028 0.06341,-0.0429 0.0014,0.009 0.0052,0.03 0.0073,0.0426 l 3.194953,10e-5 c 0.006,-0.0175 0.0123,-0.0387 0.0182,-0.0539 0.006,-0.0152 0.013,-0.03 0.0201,-0.0449 0.0146,0.0322 0.0255,0.0659 0.0382,0.0991 l 0.15143,-1.1e-4 c -0.0108,-0.0269 -0.0213,-0.054 -0.0343,-0.0798 -0.0363,-0.0375 -0.0715,-0.0758 -0.10688,-0.11426 0.003,-0.002 0.006,-0.004 0.008,-0.006 l -0.8529,4.4e-4 c -0.0189,0.011 -0.0371,0.0229 -0.0561,0.0336 l -10e-4,0.002 c -0.0181,-0.0121 -0.0354,-0.0239 -0.0535,-0.0358 l -0.42105,6e-5 c -0.004,0.0154 -0.009,0.0306 -0.0134,0.0462 -0.006,3.8e-4 -0.0239,8.4e-4 -0.0283,0.002 -0.0614,0.004 -0.12272,0.008 -0.1842,0.0106 l 1.3e-4,-4.9e-4 c 0.0258,-0.0198 0.052,-0.039 0.0782,-0.0582 h -2.14639 c 9.9e-4,0.0175 0.0017,0.0347 0.0035,0.0528 -0.0027,0.002 -0.0042,0.005 -0.0069,0.007 -0.04258,0.0368 -0.09143,0.0654 -0.140584,0.0934 l -3.67e-4,-6.3e-4 c -0.0041,-0.004 -0.0086,-0.006 -0.01293,-0.01 -0.0065,-0.0326 -0.0061,-0.0686 2.6e-5,-0.10592 0.02528,-0.0129 0.05095,-0.0249 0.07634,-0.0373 l -1.112244,-3e-5 c -0.03707,0.041 -0.08855,0.0985 -0.116929,0.12489 l 2.41e-4,0.001 c -0.03657,-0.0293 -0.07317,-0.0569 -0.111084,-0.0806 8.58e-4,-8e-4 0.0015,-0.002 0.0023,-0.005 0.0034,-0.0137 0.008,-0.0272 0.01194,-0.0407 l -2.20305,-2e-4 c -0.06608,0.0576 -0.130099,0.11713 -0.182078,0.19035 -0.0026,0.003 -0.003,0.006 -0.0047,0.009 z m 1.282314,-0.0876 -4.99e-4,-1.3e-4 c -0.0075,-0.006 -0.01447,-0.0111 -0.02151,-0.0176 0.02417,-0.0253 0.04824,-0.0491 0.07001,-0.0716 0.02834,-6.8e-4 0.05674,-5.3e-4 0.08525,-6.6e-4 -9.16e-4,0.0111 3.7e-5,0.0223 -9.04e-4,0.0335 -0.04372,0.0199 -0.08825,0.0378 -0.132324,0.0566 z m 3.075716,0.0318 c -0.0035,-0.0216 -8.96e-4,-0.004 -0.0066,-0.0371 0.01655,0.005 0.03418,0.0133 0.05086,0.0198 -0.01476,0.006 -0.0299,0.0118 -0.04429,0.0175 z m 2.048783,-0.077 c -0.0165,-0.0106 -0.0228,-0.0144 0.0103,-0.004 -0.003,0.001 -0.007,0.002 -0.0103,0.004 z m -0.0301,-0.0214 c -0.002,-0.003 -0.006,-0.005 -0.008,-0.008 0.001,-0.008 -1.5e-4,-0.0157 8.5e-4,-0.0233 0.017,0.0108 0.0346,0.0213 0.0526,0.0333 -0.0149,-0.002 -0.0296,-6.7e-4 -0.045,-0.002 z m 1.24427,0.15419 5.58642,-4e-5 c 0.006,-0.0211 0.0121,-0.0421 0.0175,-0.0632 0.009,-0.0457 0.0234,-0.0909 0.0365,-0.13628 l -2.17409,-4.7e-4 c -0.0191,0.0172 -0.0405,0.0317 -0.0592,0.0494 -0.007,0.007 -0.0466,0.0466 -0.0854,0.0852 l -5e-4,-1.4e-4 c 1.4e-4,-6.6e-4 3.9e-4,-9.3e-4 5.2e-4,-0.002 0.009,-0.0449 0.0248,-0.0879 0.0369,-0.13189 l -0.41503,-4.7e-4 c -0.052,0.0672 -0.10895,0.13008 -0.1804,0.18011 -0.0151,0.0127 -0.0429,-0.008 -0.0588,0.004 -7.7e-4,5.6e-4 -0.001,6.8e-4 -0.002,0.001 0.006,-0.0289 0.0118,-0.0583 0.0185,-0.0871 0.0153,-0.0125 0.0358,-0.0284 0.0496,-0.0392 0.0224,-0.0197 0.0446,-0.0396 0.0672,-0.059 l -2.05915,-1.7e-4 c -0.0406,0.0533 -0.0857,0.10639 -0.1374,0.15739 0.003,-0.009 0.002,-0.0174 -6.6e-4,-0.0253 0.0399,-0.0449 0.0813,-0.0883 0.12255,-0.13193 l -0.78482,-4e-5 c -10e-5,0.002 3.4e-4,0.005 2.1e-4,0.007 10e-4,0.0267 0.009,0.12668 0.0222,0.19267 z m -21.411893,-6.4237 c 0.0351,0.006 0.066,0.0146 0.10013,0.0216 -9e-4,-4.9e-4 -0.002,-7.9e-4 -0.002,-10e-4 -0.0328,-0.0109 -0.0653,-0.0167 -0.0984,-0.0202 z m 24.982113,6.33709 c -0.002,-0.003 -0.004,-0.006 -0.007,-0.008 -0.002,-10e-4 0.008,-0.002 0.007,-7e-5 8e-5,0.003 -7.5e-4,0.006 -5.2e-4,0.008 z m 0.43897,0.0828 c -0.008,-1.4e-4 -0.0195,-0.008 -0.0297,-0.0131 0.0711,-0.0563 0.14257,-0.11372 0.21617,-0.16784 0.0189,0.0169 0.039,0.0315 0.0584,0.0477 -0.009,0.0174 -0.0175,0.0343 -0.0262,0.0518 -0.0652,0.0459 -0.13486,0.0832 -0.21859,0.0811 z m 1.74421,0.004 1.11224,3e-5 -3e-5,-0.19956 -0.0936,7e-5 c -0.008,0.0229 -0.013,0.047 -0.0219,0.0696 -0.006,-0.004 -0.0122,-0.009 -0.0189,-0.0133 -0.0143,-0.009 -0.11819,0.0541 -0.12408,0.0577 -0.002,-0.007 -0.004,-0.0135 -0.006,-0.0203 0.007,-0.016 0.0306,-0.0634 0.0444,-0.094 l -0.90416,9e-5 c 0.005,0.0663 0.0105,0.1324 0.0118,0.1995 z m 0.99058,-0.11496 c -5e-4,-5.8e-4 -3.7e-4,-7.7e-4 -0.001,-0.001 -10e-4,-0.002 -4.1e-4,-0.001 0.002,-5.5e-4 -2.6e-4,6.3e-4 -2.7e-4,9.6e-4 -5.2e-4,0.002 z" />
        <path
           id="path10"
           style="fill:#942323;fill-opacity:1;stroke:none;stroke-width:0.4;stroke-dasharray:none;stroke-opacity:1"
           d="m 106.71987,143.17787 -0.0765,-1.9e-4 c -0.005,0.014 -0.0106,0.0278 -0.0163,0.0416 -0.009,0.004 -0.0146,0.007 -0.0244,0.0112 -0.0435,0.0218 -0.0857,0.0459 -0.129,0.0681 -0.014,-0.012 -0.0318,-0.0168 -0.0492,-0.0238 0.0459,-0.0414 0.0612,-0.0597 0.0988,-0.0971 l -0.64255,1e-4 -1.02447,2.80705 c 0.0125,-0.008 0.0259,-0.0157 0.0379,-0.0236 0.0235,0.20353 0.0853,0.40157 0.19431,0.58065 -0.0224,0.011 -0.0446,0.0224 -0.0674,0.0322 -0.0414,-0.0707 -0.0858,-0.13962 -0.13355,-0.20644 0.012,-0.0333 0.01,-0.0443 -0.003,-0.12854 -0.0266,0.005 -0.0552,0.007 -0.0838,0.009 -0.009,-0.0128 -0.0183,-0.0249 -0.0275,-0.0373 l -0.009,0.0255 c 0.002,0.005 0.005,0.01 0.006,0.0146 -0.004,-6e-5 -0.008,-1.3e-4 -0.0121,9.2e-4 l -0.11853,0.32455 0.17762,-3e-5 c 0.0111,-0.0374 0.0201,-0.0673 0.0292,-0.0933 0.0128,0.0145 0.0262,0.0285 0.0388,0.043 0.002,0.001 0.002,0.001 0.004,0.004 0.006,0.0151 0.011,0.0306 0.016,0.046 l 0.44626,-2.7e-4 0.30156,-0.86774 1.29476,-2.8e-4 0.30178,0.86837 0.35575,7e-5 c -0.0585,-0.0126 -0.11764,-0.0232 -0.1758,-0.0368 -0.0193,0.003 -0.0389,0.004 -0.0584,0.006 0.003,-0.013 0.004,-0.0283 0.01,-0.0397 0.0212,-0.0481 0.0431,-0.0954 0.065,-0.14307 0.11349,0.0221 0.22452,0.0198 0.30484,-0.0435 0.0356,-0.028 0.0558,-0.0708 0.0673,-0.11733 l -0.52943,-1.45634 c 0.003,0.0132 0.006,0.0271 0.009,0.0404 -0.001,0.003 -0.001,0.004 -0.002,0.007 -0.10645,-0.12418 -0.19766,-0.23351 -0.28936,-0.33967 0.0316,-0.0303 0.0654,-0.0649 0.0975,-0.0964 0.0195,0.0125 0.0389,0.0253 0.0582,0.0386 l -0.27711,-0.76279 c -0.004,0.003 -0.008,0.006 -0.0109,0.01 -0.002,10e-4 -0.002,0.005 -0.005,0.008 -0.0537,0.0227 -0.14709,0.0584 -0.17214,0.0694 0.007,-0.018 0.0103,-0.0374 0.0179,-0.0551 0.008,-0.0216 0.009,-0.0261 0.0163,-0.0454 0.0436,-0.0167 0.0876,-0.0323 0.1313,-0.0488 z m -0.79566,0.0784 c -0.0134,0.0231 -0.004,0.0688 0.004,0.10371 -0.01,-0.003 -0.0199,-0.005 -0.03,-0.006 -0.0175,-0.0257 -0.0328,-0.0509 -0.0411,-0.0822 0.0226,-0.003 0.0448,-0.009 0.0672,-0.0151 z m 0.37621,0.44481 0.0302,0.0991 c 0.0185,-0.009 0.037,-0.0182 0.0555,-0.0274 0.003,0.002 0.006,0.005 0.008,0.007 0.002,0.0121 8.9e-4,0.0237 0.005,0.0356 0.005,0.004 0.0101,0.008 0.0152,0.0113 -0.003,0.009 -0.006,0.0187 -0.009,0.0282 -0.0169,0.008 -0.0339,0.016 -0.0508,0.0239 l 0.0998,0.31619 0.0903,0.26388 c 0.008,-0.005 0.0154,-0.009 0.023,-0.0141 l 3.7e-4,6.3e-4 c -0.004,0.0102 -0.007,0.0222 -0.0108,0.0324 -0.001,7e-4 -0.003,0.001 -0.005,0.003 l 0.23731,0.69166 -0.42369,-1.1e-4 c 0.002,0.001 0.003,0.004 0.004,0.005 0.003,0.006 0.006,0.011 0.009,0.0163 -0.006,0.004 -0.0121,0.006 -0.0178,0.0103 -0.003,-0.0102 -0.005,-0.0213 -0.008,-0.032 l -0.015,1.1e-4 c 0.008,0.0103 0.015,0.0214 0.0224,0.0322 -0.0125,0.008 -0.0229,0.0187 -0.0351,0.0269 -0.002,-4.2e-4 -0.005,-7.7e-4 -0.007,-8.4e-4 0.003,-0.0188 0.006,-0.0371 0.0105,-0.0587 l -0.12359,10e-6 c 0.001,0.003 0.003,0.006 0.003,0.009 l -0.007,-0.008 c 5.2e-4,-3e-4 10e-4,-6.4e-4 0.002,-0.001 l -0.39047,-3e-4 c 0.19835,-0.57756 0.26656,-0.78113 0.32373,-0.95276 -0.0616,0.0667 -0.12331,0.13332 -0.18599,0.19895 -0.0103,0.0115 -0.0128,0.0129 -0.0234,0.0236 -0.002,-0.0163 -0.004,-0.0336 -0.004,-0.0493 -9.6e-4,-0.0196 -0.0187,0.0217 -0.0337,0.044 -0.01,-0.0139 -0.021,-0.0263 -0.0304,-0.0402 0.0186,-0.0217 0.0365,-0.0442 0.0542,-0.0667 0.0781,-0.0411 0.14787,-0.0782 0.22637,-0.11803 0.0154,-0.0458 0.0834,-0.24366 0.0882,-0.25937 0.01,-0.0321 0.0163,-0.0568 0.0251,-0.0858 -0.0103,-0.004 -0.0198,-0.009 -0.0302,-0.0133 0.0134,-0.007 0.0267,-0.0131 0.0401,-0.0198 0.007,-0.0256 0.017,-0.0557 0.0232,-0.0789 z m -0.17898,0.28856 c -0.0165,0.008 -0.0326,0.0171 -0.049,0.0254 -0.009,-0.006 -0.018,-0.0141 -0.0271,-0.0206 0.0252,-0.004 0.0502,-0.006 0.0762,-0.005 z m -3.02063,-0.75057 c -0.17826,-0.0405 -0.37462,-0.061 -0.58923,-0.0611 l -0.0193,1e-5 c -0.002,0.004 -0.004,0.008 -0.007,0.0119 -0.021,0.009 -0.0405,0.02 -0.0614,0.0295 -1.9e-4,-0.003 0.002,-0.005 0.002,-0.008 -0.003,-0.0132 -0.0113,-0.0228 -0.0165,-0.0343 l -1.12729,2.2e-4 -1e-5,1.11813 c 0.0651,-0.0375 0.13049,-0.0756 0.1931,-0.10769 0.008,0.006 0.0158,0.0115 0.0238,0.017 -0.0249,0.0219 -0.0428,0.0348 -0.0692,0.0585 -0.0507,0.0454 -0.0984,0.0941 -0.14753,0.1413 l -2.1e-4,0.9212 c 0.01,0.008 0.0197,0.0156 0.0297,0.023 0.008,0.0236 0.0177,0.0454 0.0252,0.0699 -0.0183,0.009 -0.0365,0.0177 -0.0547,0.0265 l -1.2e-4,1.05871 c 0.0211,-0.005 0.0422,-0.0134 0.0634,-0.0248 -0.0191,0.0279 -0.0417,0.0529 -0.0633,0.0788 l 5.6e-4,0.0172 1.37484,3.2e-4 c 0.0756,-4e-5 0.14838,-0.005 0.21994,-0.0122 4.8e-4,-9.1e-4 0.002,-0.003 0.002,-0.005 0.0103,-0.0228 0.0178,-0.047 0.0281,-0.07 0.003,-0.002 0.006,-0.004 0.009,-0.004 l 1.4e-4,-5.1e-4 c 0.0139,0.0284 0.0345,0.0484 0.0579,0.0637 0.19731,-0.0311 0.38059,-0.089 0.5458,-0.18011 0.24264,-0.13291 0.43011,-0.32429 0.56579,-0.5701 -0.006,0.003 -0.0108,0.005 -0.0165,0.008 4e-4,-0.009 0.001,-0.0171 0.002,-0.0257 0.0142,-0.0106 0.0283,-0.0213 0.0423,-0.032 0.11074,-0.21737 0.17276,-0.46585 0.18979,-0.74307 -0.067,0.0539 -0.13911,0.10949 -0.2278,0.17329 -0.0877,0.0631 -0.18209,0.11659 -0.2743,0.17314 -0.008,0.002 -0.0276,0.0114 -0.0365,0.0144 0.0227,-0.0499 0.0472,-0.099 0.0742,-0.14704 0.0893,-0.071 0.17852,-0.14289 0.26134,-0.22262 0.0527,-0.0387 0.10067,-0.0724 0.15099,-0.10827 0.0177,0.0301 0.0349,0.0604 0.0531,0.0892 0.002,-0.0421 0.007,-0.0827 0.007,-0.12611 0,-0.53858 -0.1569,-0.95158 -0.4704,-1.23936 -0.19594,-0.18087 -0.44239,-0.30525 -0.73945,-0.37308 z m 0.096,0.0691 -1.3e-4,5e-4 c -0.0137,0.012 -0.0275,0.0238 -0.0416,0.0354 -0.007,-8.9e-4 -0.0128,-0.002 -0.0194,-0.003 0.0122,-0.0108 0.0232,-0.0209 0.0355,-0.0306 0.008,-8.3e-4 0.0169,-0.002 0.0258,-0.002 z m 0.0599,0.038 -1.4e-4,4.9e-4 c 0.002,0.006 0.003,0.0102 0.004,0.0145 -0.0124,-0.002 -0.0253,-0.004 -0.0379,-0.006 0.0113,-0.003 0.0226,-0.006 0.034,-0.009 z m -0.14946,0.0386 c -0.0306,0.0241 -0.0606,0.0487 -0.0916,0.0722 0.0181,-0.0197 0.0333,-0.0359 0.0613,-0.0649 0.01,-0.002 0.0204,-0.005 0.0303,-0.007 z m 0.58748,0.21145 c -0.0243,0.0479 -0.0453,0.097 -0.0684,0.14539 -0.0283,0.0191 -0.0547,0.0401 -0.0822,0.0609 0.0129,-0.0404 0.0218,-0.0809 0.0271,-0.12058 3.4e-4,-4.8e-4 4.5e-4,-4.3e-4 7.7e-4,-8.3e-4 0.0101,-0.0146 0.0226,-0.0276 0.0332,-0.0419 0.0298,-0.0142 0.0609,-0.0298 0.0896,-0.0429 z m 3.3418,0.94357 c 0.013,0.0199 0.0277,0.0383 0.0398,0.0588 -0.003,-8.2e-4 -0.005,-0.001 -0.009,-0.002 l -7.6e-4,8.3e-4 c 0.003,0.005 0.005,0.009 0.007,0.0137 3.7e-4,0.001 10e-4,0.003 0.002,0.004 0.003,-1.9e-4 0.007,8.5e-4 0.0107,-2.3e-4 -0.002,-0.004 -0.005,-0.009 -0.008,-0.0127 0.0208,0.005 0.0373,0.011 0.0194,0.0135 -0.004,8.9e-4 -0.008,-1.4e-4 -0.0123,-1.8e-4 0.014,0.0241 0.0276,0.0485 0.0429,0.0714 0.0484,0.0837 0.0855,0.14807 0.12743,0.21925 -0.002,0.007 -0.0572,0.16148 -0.05,0.14067 -0.0314,-0.0313 -0.0673,-0.0669 -0.10412,-0.0846 0.081,-0.0793 0.005,-0.25858 -0.0263,-0.34729 -0.0205,7.2e-4 -0.0412,7.6e-4 -0.0619,-5.3e-4 -0.002,-0.007 -0.004,-0.0146 -0.007,-0.0221 0.0221,0.002 0.0402,4e-4 0.0596,0.005 -0.0101,-0.0192 -0.0208,-0.0381 -0.0306,-0.0575 z m -4.09088,-1.02709 c -0.0117,0.009 -0.0235,0.0173 -0.0349,0.0265 -0.005,-0.001 -0.009,-0.001 -0.0132,-0.003 0.016,-0.008 0.0323,-0.0158 0.0482,-0.0241 z m 3.96382,1.08995 5e-4,1.3e-4 c 4e-4,0.002 0.001,0.003 6.4e-4,0.005 -0.004,-4.2e-4 -0.009,-0.001 -0.0125,-0.001 0.004,-8.9e-4 0.008,-0.003 0.0118,-0.004 z m -1.35646,-0.34845 c 7.3e-4,0.0127 5.2e-4,0.0251 2.9e-4,0.0376 -0.0136,0.007 -0.0268,0.0155 -0.0404,0.0229 -0.0112,-0.003 -0.0226,-0.004 -0.0339,-0.007 0.0253,-0.0176 0.0485,-0.036 0.0743,-0.0534 z m -2.71898,-0.68631 2.4e-4,0.001 c 1.5e-4,7.4e-4 -2.1e-4,0.002 -2e-5,0.002 -0.007,0.003 -0.0133,0.005 -0.0201,0.007 0.007,-0.003 0.0131,-0.006 0.0198,-0.0102 z m 2.99206,0.86912 c 0.01,0.012 0.0206,0.0242 0.031,0.0362 -0.003,0.004 -0.0172,0.0169 -0.0218,0.0214 -0.0118,-0.0104 -0.0232,-0.0198 -0.0355,-0.0293 0.009,-0.01 0.0177,-0.0187 0.0263,-0.0283 z m -4.21861,-1.00358 c 0.0188,0.0123 0.0367,0.0253 0.0559,0.0369 -0.001,0.002 -0.003,0.004 -0.006,0.007 l 2.3e-4,0.001 c -0.0199,-0.0105 -0.0363,-0.026 -0.0507,-0.0446 z m 1.35691,0.36669 c 0.13546,0.0482 0.25085,0.12084 0.34571,0.21728 0.18971,0.19132 0.28467,0.46942 0.28468,0.83437 -3e-5,0.36173 -0.0901,0.6479 -0.2702,0.85849 -0.0424,0.0495 -0.0893,0.0919 -0.13857,0.12979 6.6e-4,0.013 3.5e-4,0.0258 3e-5,0.0385 0.0164,-0.007 0.0317,-0.0133 0.0454,-0.0194 0.004,0.0144 0.01,0.029 0.0144,0.044 -0.0583,0.0406 -0.11666,0.0811 -0.17491,0.12167 0.008,-0.0132 0.0162,-0.0258 0.0238,-0.0391 0.0139,-0.0249 0.05,-0.0648 0.0404,-0.0849 0.0207,-0.009 0.0318,-0.0134 0.0496,-0.0215 -2e-4,0.0162 -0.003,0.0546 2.3e-4,0.0413 0.003,-0.0128 2.2e-4,-0.0279 4.8e-4,-0.0416 l 1.3e-4,-4.9e-4 c -4.2e-4,-0.0139 -8.3e-4,-0.0201 -7.1e-4,-0.0372 -0.16002,0.12249 -0.3553,0.18478 -0.58825,0.18478 h -0.60294 l -6e-5,-1.25564 c -0.0195,0.0149 -0.0392,0.0292 -0.058,0.0449 -0.0256,-0.008 -0.052,-0.0119 -0.0779,-0.0188 0.0455,-0.0306 0.09,-0.0619 0.13592,-0.092 l 8e-5,-0.40764 c -0.0586,0.034 -0.11751,0.0673 -0.17594,0.10158 -0.0349,-0.0267 -0.073,-0.0537 -0.10846,-0.0804 0.0453,-0.047 0.0907,-0.0939 0.13793,-0.13959 0.0494,-0.0384 0.0977,-0.0702 0.14669,-0.10621 l -2.2e-4,-0.3446 0.50392,2.1e-4 c 0.17604,-3e-5 0.33152,0.0239 0.46698,0.0721 z m -1.28844,-0.34471 c -8.8e-4,0.007 -7.3e-4,0.0143 -0.001,0.021 -0.004,-0.002 -0.007,-0.004 -0.01,-0.007 0.003,-0.005 0.007,-0.01 0.011,-0.0141 z m -0.002,0.0215 c 0.003,0.002 0.006,0.003 0.008,0.005 -0.002,0.003 -0.003,0.005 -0.008,0.004 -2.2e-4,0.004 -4e-4,0.009 -4.4e-4,0.0132 -0.0268,-0.002 -0.0264,1.7e-4 -0.0335,0.001 0.006,-0.007 0.0123,-0.0151 0.0183,-0.0223 0.004,0.003 0.008,0.007 0.0132,0.009 0.002,7e-4 0.001,-7.4e-4 0.002,-0.001 1.8e-4,-0.003 3.2e-4,-0.005 1.3e-4,-0.008 z m -0.0389,0.0291 c 0.0116,0.004 0.0237,0.008 0.0356,0.0127 -7e-5,0.0157 -0.005,0.0413 -0.003,0.0547 -0.0603,0.0319 -0.12075,0.0635 -0.18051,0.0966 0.0515,-0.0523 0.10152,-0.10839 0.14816,-0.1636 z m 5.50201,1.62673 3.7e-4,6.4e-4 c 0.01,0.0146 0.0166,0.0282 0.0235,0.0421 0.001,-0.004 -0.0195,0.0535 -0.0198,0.0546 -0.003,-0.002 -0.006,-0.005 -0.008,-0.007 -0.0279,-0.0347 -0.0466,-0.0592 -0.0709,-0.0891 0.0237,-0.004 0.0518,-0.005 0.0753,-0.001 z m -7.55086,-1.95481 -0.839351,-2.1e-4 -0.96575,2.64785 c 0.01574,-0.004 0.0348,-0.009 0.04848,-0.0132 l 1.34e-4,-5.1e-4 c 0.06467,0.0446 0.124587,0.0898 0.173637,0.13267 -0.02163,0.0328 -0.04437,0.0647 -0.06483,0.0982 -0.015,-0.008 -0.03022,-0.0164 -0.04521,-0.0249 0.01301,0.014 0.02413,0.029 0.03348,0.0448 -0.02201,0.0366 -0.03917,0.0754 -0.05919,0.11307 -0.03784,0.0188 -0.07509,0.0386 -0.112767,0.0575 -0.01674,-0.026 -0.03207,-0.053 -0.04893,-0.0789 -0.0097,-0.0143 -0.01953,-0.0284 -0.02924,-0.0426 l -0.03209,0.0877 c 0.01474,0.0238 0.02948,0.0477 0.04454,0.0714 -0.0086,0.005 -0.01674,0.0104 -0.02545,0.0151 -0.01465,-0.007 -0.02903,-0.0119 -0.04362,-0.0189 l -0.112616,0.30847 0.711493,1.8e-4 0.233587,-0.67409 c -0.0139,0.0107 -0.02765,0.0213 -0.04113,0.0317 -0.01,0.002 -0.01971,0.005 -0.0304,0.004 0.01,-0.037 0.01713,-0.0751 0.03256,-0.10951 0.0085,-0.0201 0.01838,-0.0373 0.02789,-0.0562 0.01043,0.0199 0.02243,0.039 0.03942,0.0486 l 0.03926,-0.11253 0.08398,3e-5 c -4.1e-5,-0.0149 -0.0015,-0.03 -3.82e-4,-0.0445 0.03404,-0.005 0.05541,-0.009 0.08936,-0.014 -0.01019,0.0149 -0.01791,0.0282 -0.02768,0.0434 -0.0044,0.005 -0.0087,0.0102 -0.01319,0.0152 l 1.06887,1.8e-4 c 0.0024,-0.004 0.0047,-0.007 0.0069,-0.01 0.0043,0.003 0.0086,0.006 0.01293,0.01 l 0.07171,-4e-5 c -0.009,-0.0194 -0.01812,-0.0386 -0.02786,-0.0578 0.04107,-0.0293 0.08586,-0.0585 0.125698,-0.0878 0.0168,-0.0123 0.056,-0.043 0.0833,-0.0633 l 3.6e-4,6.3e-4 c 5.3e-4,2.9e-4 7.7e-4,8.7e-4 8.4e-4,7.6e-4 0.007,0.003 0.0131,0.007 0.0192,0.0103 -0.0251,0.0395 -0.0569,0.0764 -0.0856,0.11188 -0.0319,0.0394 -0.0677,0.0759 -0.10416,0.11119 l 0.0921,0.26541 c 0.0316,-0.0266 0.0637,-0.0525 0.0939,-0.0808 0.005,0.003 0.0114,0.008 0.0172,0.0118 -0.0338,0.0346 -0.0661,0.0705 -0.0986,0.10627 l 0.134977,0.38873 c 0.0655,-0.0265 0.13118,-0.052 0.19627,-0.0796 l -2.6e-4,9.6e-4 c 0.006,0.0195 0.0147,0.038 0.0227,0.0569 -0.0404,3.6e-4 -0.0784,-0.002 -0.0549,0.005 0.0288,0.008 0.04,0.008 0.0624,0.0126 0.004,0.0105 0.01,0.0214 0.015,0.0319 -0.0652,0.0332 -0.1324,0.0627 -0.19924,0.0927 l 0.0105,0.0307 0.70397,3.1e-4 -0.915287,-2.52005 c -0.0628,-0.0241 -0.12353,-0.0453 -0.130823,-0.0469 -0.02402,-0.005 -0.05268,-0.008 -0.08132,-0.01 0.0011,-0.0119 0.0041,-0.0234 0.0053,-0.0354 0.04589,-0.0339 0.09007,-0.0702 0.134773,-0.10567 z m -1.692886,2.83981 c -0.02916,-0.0314 -0.06393,-0.0598 -0.09021,-0.0926 -0.0067,0.01 -0.01248,0.0222 -0.01765,0.0338 0.03576,0.0199 0.07226,0.0382 0.107826,0.0588 z m -0.107825,-0.0588 c -0.01489,-0.008 -0.0312,-0.0115 -0.04637,-0.0186 l -0.04903,0.13506 c 0.0049,-0.002 0.01015,-0.003 0.01481,-0.005 0.04153,-0.0198 0.05919,-0.0673 0.08046,-0.1106 z m 1.739352,-2.72572 c 0.02772,0.0248 0.05335,0.0525 0.08272,0.0746 0.006,0.005 0.01446,0.004 0.0212,0.007 -0.0016,0.005 -0.003,0.0103 -0.0046,0.0153 -0.03969,-0.0273 -0.08148,-0.054 -0.120242,-0.0804 0.0075,-0.005 0.01388,-0.0111 0.02096,-0.0163 z m 7.475649,2.05983 3.6e-4,6.4e-4 c 0.008,0.006 0.015,0.0133 0.0231,0.0195 -0.0292,0.0194 -0.0447,0.0315 -0.0801,0.0534 -0.007,0.006 -0.014,0.0117 -0.0212,0.0173 -0.009,-0.005 -0.0172,-0.009 -0.0251,-0.014 l -1.4e-4,5.1e-4 c 0.003,0.007 0.004,0.0115 0.006,0.0172 -0.01,-0.005 -0.0193,-0.0103 -0.0291,-0.015 -0.002,-0.006 -0.002,-0.0116 -0.004,-0.0175 0.007,0.004 0.0181,0.01 0.0269,0.0155 -0.0149,-0.0353 -0.0369,-0.0691 -0.0349,-0.0457 0.001,0.0107 0.005,0.0197 0.007,0.0297 -0.0141,-0.008 -0.0427,-0.0244 -0.0506,-0.0286 -0.0179,-0.0141 -0.024,-0.0185 -0.0408,-0.0312 0.0112,-0.003 0.0213,-0.008 0.0322,-0.0106 0.0617,-0.0135 0.1267,0.005 0.19012,0.009 z m -7.552611,-2.00022 c 0.04583,0.0295 0.09223,0.0594 0.138362,0.0906 -0.01768,0.0216 -0.03557,0.043 -0.05361,0.0643 -0.07966,-0.006 -0.157541,7.5e-4 -0.236193,0.0169 0.02663,-0.0403 0.05238,-0.0778 0.07887,-0.12063 0.0076,-0.005 0.01543,-0.009 0.02291,-0.0136 0.01636,-0.0104 0.03318,-0.0263 0.04964,-0.0375 z m 6.914161,1.91311 c 0.009,0.0129 0.0183,0.0254 0.0272,0.0383 -3.4e-4,9.4e-4 -6.8e-4,0.002 -0.001,0.004 -0.005,-0.002 -0.01,-0.004 -0.0147,-0.005 -0.004,-0.0123 -0.008,-0.0242 -0.0116,-0.0369 z m 0.32541,0.11929 c 3.6e-4,5.4e-4 8.5e-4,6.9e-4 8.4e-4,7.5e-4 -0.011,0.006 -0.0224,0.0116 -0.0335,0.0172 0.003,-0.003 0.005,-0.006 0.007,-0.009 0.008,-0.004 0.0167,-0.006 0.025,-0.009 z m -0.52009,-0.12549 c 0.008,0.008 0.0161,0.0162 0.0239,0.0246 -0.0113,10e-4 -0.0225,-8.4e-4 -0.0337,0.002 -0.009,0.002 -0.0144,0.008 -0.0222,0.0111 -0.004,-0.001 -0.007,-0.003 -0.0112,-0.004 0.0141,-0.0104 0.0287,-0.0226 0.0433,-0.0338 z m -4.58687,-1.0648 4.9e-4,1.3e-4 c -0.0192,0.0164 -0.0368,0.0306 -0.0567,0.048 -0.006,-0.004 -0.0114,-0.009 -0.0174,-0.013 0.024,-0.012 0.0493,-0.0234 0.0735,-0.0349 z m 4.34325,1.21729 c 0.008,0.0174 0.0173,0.0344 0.0258,0.0513 -0.008,0.0106 -0.0172,0.0204 -0.0258,0.0306 -0.0352,-0.0273 -0.0759,-0.0615 -0.11528,-0.0929 0.0387,0.007 0.0787,0.0138 0.10997,0.0129 0.001,-1.1e-4 0.004,-0.002 0.006,-0.002 z m -0.1462,0.0245 5e-4,1.3e-4 c 0.0362,0.0337 0.0738,0.0657 0.11115,0.0983 -0.002,0.003 -0.004,0.005 -0.006,0.007 -0.002,0.004 -0.005,0.006 -0.007,0.009 -0.0296,-0.0345 -0.0595,-0.0655 -0.0901,-0.099 -0.003,-0.005 -0.006,-0.01 -0.008,-0.0144 z m -0.12725,0.0157 4.9e-4,1.3e-4 c 0.004,0.004 0.0124,0.0116 0.0166,0.0162 0.0188,0.037 0.0404,0.0846 0.0622,0.1333 -0.006,-5.9e-4 -0.0116,-1e-5 -0.0177,4.3e-4 -0.009,-0.009 -0.014,-0.012 -0.0229,-0.0205 -0.0332,-0.0379 -0.0593,-0.0691 -0.0881,-0.1023 -3.7e-4,-7.7e-4 -4.5e-4,-0.002 -4.5e-4,-0.002 0.0157,-0.009 0.0331,-0.017 0.0501,-0.0251 z m -3.96656,-1.04783 c 0.0333,0.0249 0.0676,0.0496 0.10041,0.0745 -0.01,0.006 -0.0199,0.0114 -0.0298,0.0172 -0.009,-0.002 -0.0165,-0.006 -0.0252,-0.008 -0.0763,-0.0111 -0.14481,0.0419 -0.20807,0.0956 0.0526,-0.0609 0.10611,-0.12012 0.1626,-0.17952 z m -2.517511,-0.64351 0.05059,0.16657 0.103667,0.32791 0.01314,0.0388 c 0.04014,-0.008 0.08391,-0.0176 0.07797,-0.0155 -0.07813,0.0211 -0.135962,0.046 0.07557,0.0314 0.0014,0.0142 0.0017,0.0283 0.0037,0.0422 -0.0418,0.0118 -0.08353,0.0225 -0.125297,0.0344 l 0.150801,0.43951 c 0.0058,-0.002 0.0115,-0.003 0.01704,-0.004 -0.003,0.0109 -0.0047,0.0222 -0.0068,0.0335 l 0.129171,0.37648 -0.680035,2.1e-4 c -9.36e-4,0.002 -0.0021,0.004 -0.003,0.005 -0.01006,0.007 -0.01758,0.0157 -0.02855,0.0207 -0.01228,0.006 -0.02746,0.004 -0.0431,-8.8e-4 0.0095,-0.008 0.01881,-0.0167 0.02812,-0.0251 l -0.249825,-6e-5 c 0.254014,-0.73955 0.392252,-1.14651 0.41476,-1.22046 0.02252,-0.074 0.04165,-0.13959 0.05777,-0.19745 z m 6.675411,1.79385 c 0.006,0.006 0.011,0.0112 0.0163,0.0172 -10e-4,0.002 -0.003,0.003 -0.004,0.005 -0.004,-0.006 -0.009,-0.0157 -0.0118,-0.0219 z m 1.77105,0.51628 5e-4,1.3e-4 c 0.002,6.2e-4 0.004,0.001 0.006,0.002 -0.011,0.0527 -0.0295,0.10241 -0.0697,0.13219 0.012,-0.0255 0.038,-0.081 0.0638,-0.1343 z m -2.10799,-0.53864 3.6e-4,6.3e-4 c 0.0173,0.0273 0.0331,0.0548 0.052,0.0813 -0.0523,0.01 -0.10084,0.0263 -0.14502,0.052 -8.1e-4,-8.2e-4 -0.003,-0.002 -0.004,-0.003 0.0165,-0.0347 0.0344,-0.0701 0.0525,-0.10415 0.0148,-0.009 0.0298,-0.0175 0.0446,-0.0266 z m -6.452793,-1.69424 c -0.06534,0.0924 -0.148746,0.17764 -0.209274,0.27188 0.01824,-0.07 0.03391,-0.13931 0.04626,-0.20857 0.01369,-0.004 0.02803,-0.007 0.04055,-0.0116 0.03163,-0.0114 0.05925,-0.0268 0.08511,-0.0441 0.01237,-0.003 0.02495,-0.005 0.03735,-0.008 z m 0.843986,0.43212 5e-4,1.4e-4 c 0.004,0.002 0.007,0.005 0.0107,0.008 -0.0161,8.7e-4 -0.032,7.5e-4 -0.0479,0.003 0.002,-0.002 0.003,-0.006 0.004,-0.007 0.0133,-5.8e-4 0.0187,-0.002 0.0327,-0.004 z m -0.0811,0.009 c -8.6e-4,8e-4 -0.002,0.002 -0.002,0.005 -0.04512,0.005 -0.08993,0.0142 -0.134778,0.0238 3.27e-4,-0.005 5.86e-4,-0.0103 -3.38e-4,-0.0146 0.04186,-0.004 0.08497,-0.008 0.137496,-0.014 z m 5.774547,1.59595 c 0.003,0.002 0.005,0.003 0.009,0.006 -0.0127,0.0167 -0.0251,0.0335 -0.0375,0.0504 -0.009,-0.005 -0.0182,-0.009 -0.0272,-0.0145 0.0162,-0.0163 0.0356,-0.0299 0.0562,-0.0422 z m -3.7827,-0.98521 c 0.005,0.0127 0.0108,0.0256 0.0171,0.0383 -0.009,-0.01 -0.0181,-0.0215 -0.0275,-0.0309 0.004,-0.002 0.007,-0.005 0.0103,-0.008 z m 3.33957,0.94784 c -0.002,0.006 -0.004,0.0121 -0.005,0.0183 -0.003,-0.002 -0.006,-0.005 -0.009,-0.007 0.005,-0.004 0.009,-0.007 0.0141,-0.0106 z m -9.737358,-2.5998 -0.03677,-5.4e-4 c -0.05147,0.0714 -0.108835,0.13877 -0.174894,0.19549 -0.03028,0.0106 -0.06087,0.0192 -0.0944,0.0149 1.41e-4,-0.002 9.52e-4,-0.004 0.0011,-0.006 8.46e-4,-0.007 -0.0035,-0.0142 -0.006,-0.0214 1.46e-4,-3.1e-4 1.31e-4,-7.2e-4 2.59e-4,-9.6e-4 0.0292,-0.0636 0.05163,-0.13657 0.104842,-0.18164 l -0.50504,3e-5 -3.75e-4,3.39766 0.419428,2e-5 c -0.03581,-0.0148 -0.07063,-0.0316 -0.106128,-0.0472 0.03043,-0.0239 0.06156,-0.0471 0.09183,-0.0712 0.04185,-0.0333 0.07416,-0.0649 0.113327,-0.0975 0.01208,-0.003 0.02358,-0.008 0.03567,-0.0114 l -1.32e-4,5e-4 c -0.04409,0.0755 -0.08541,0.15209 -0.131289,0.22643 l 0.719013,7e-5 c 0.0612,-0.0491 0.122561,-0.0978 0.170854,-0.15645 -0.02652,0.0539 -0.05799,0.1023 -0.0885,0.15658 l 0.660729,-5e-5 c -0.0019,-0.008 -0.0036,-0.0159 -0.0054,-0.0239 0.01139,0.009 0.02409,0.0158 0.03581,0.0241 l 0.462167,2.6e-4 c 0.0499,-0.10535 0.100912,-0.21059 0.15733,-0.31362 l 2.15e-4,-0.23641 -1.823235,-9e-5 -1.65e-4,-1.61465 c -0.02008,0.0281 -0.04172,0.0547 -0.06144,0.0835 -0.07557,-0.005 -0.150564,-0.009 -0.23084,-0.011 0.01829,-0.0199 0.0387,-0.0383 0.05639,-0.0587 0.07982,-0.0454 0.157642,-0.0947 0.235815,-0.14332 l -1.57e-4,-0.53451 c -0.03751,-0.0329 -0.07451,-0.0665 -0.11419,-0.097 0.02929,-0.0197 0.05764,-0.0419 0.08532,-0.0648 0.0093,-0.004 0.01934,-0.0109 0.02884,-0.0158 z m 9.684328,2.64201 c 0.0122,0.0105 0.0234,0.022 0.0358,0.0321 -0.007,0.03 -0.014,0.0601 -0.0191,0.0906 -0.0137,-0.012 -0.0266,-0.0241 -0.0402,-0.0359 5e-5,-0.0234 6.2e-4,-0.0467 0.002,-0.0701 0.007,-0.006 0.0145,-0.011 0.0216,-0.0167 z m 0.39425,0.11796 c 0.005,0.003 0.011,0.007 0.0164,0.0106 -0.009,0.0132 -0.0146,0.0275 -0.0233,0.0409 3.6e-4,-0.0129 -0.002,-0.0248 1e-4,-0.039 8.4e-4,-0.005 0.005,-0.008 0.006,-0.0127 z m -3.71402,-0.98999 c 9e-4,0.004 1.2e-4,0.007 0.001,0.011 -0.0264,0.0244 -0.0532,0.0484 -0.0791,0.0735 -0.004,-7e-5 -0.008,10e-4 -0.0112,0.002 0.0298,-0.0225 0.0477,-0.0553 0.0623,-0.0908 0.009,0.001 0.0178,0.003 0.0268,0.004 z m 3.51462,1.02736 c 0.0137,0.0109 0.0281,0.0203 0.0421,0.0305 0.0225,0.0378 0.049,0.0722 0.079,0.10835 -3.8e-4,7.9e-4 -6.3e-4,0.002 -0.001,0.002 -0.005,0.0118 -0.0109,0.0252 -0.0173,0.0376 -0.0399,-0.0285 -0.0811,-0.0551 -0.12094,-0.0838 0.005,-0.0331 0.0118,-0.0634 0.0181,-0.0946 z m -6.871513,-1.82673 -7.58e-4,8.4e-4 c 7.74e-4,9.7e-4 0.0015,0.002 0.0032,0.004 -0.0049,-8.8e-4 -0.0092,-4e-4 -0.01399,-0.002 0.0037,-0.002 0.0075,-0.001 0.01153,-0.003 z m -3.526814,-0.9419 c -0.0033,0.008 -0.0067,0.0168 -0.01,0.0252 -0.01484,-0.006 -0.02988,-0.0111 -0.04489,-0.0162 -9.4e-5,-0.001 3.57e-4,-0.002 2.77e-4,-0.003 0.01833,-0.002 0.03627,-0.004 0.05449,-0.006 z m 10.178327,2.73908 c 0.0123,0.0126 0.0232,0.0223 0.0356,0.0347 -0.007,0.0496 -0.0132,0.099 -0.0157,0.14879 -3.3e-4,0.005 8.2e-4,0.008 3.9e-4,0.014 -0.0105,-0.0659 -0.0188,-0.1316 -0.0204,-0.19752 z m -10.190998,-2.70976 c -2.25e-4,-5.1e-4 0.0019,9.2e-4 0.002,5.5e-4 -1.27e-4,3.1e-4 -1.6e-4,7.1e-4 -2.59e-4,9.6e-4 -2.62e-4,-5.7e-4 -8.6e-4,-6.5e-4 -8.31e-4,-7.6e-4 z m 6.775758,1.81867 c -0.01,0.0142 -0.0183,0.0297 -0.0275,0.0445 -4e-4,9.3e-4 -8.9e-4,0.002 -0.001,0.003 -0.0637,0.0651 -0.1237,0.13361 -0.18144,0.2039 -0.011,-0.019 -0.0212,-0.0386 -0.0329,-0.057 -0.003,-0.005 -0.0135,-0.0257 -0.0167,-0.0317 9.9e-4,-0.0114 0.002,-0.0229 0.004,-0.0342 0.0892,-0.0364 0.17604,-0.0759 0.25538,-0.12845 z m -6.817002,-1.82247 c 0.0062,0.008 0.024,0.0263 0.03176,0.0352 -0.0049,0.0145 -0.01091,0.0288 -0.01587,0.0434 -0.0065,-0.0203 -0.01206,-0.0464 -0.01586,-0.0786 z m 10.428592,2.90722 c 0.0263,0.0248 0.0583,0.0567 0.0815,0.0791 0.003,0.003 0.007,0.005 0.0112,0.008 -0.0169,0.0439 -0.0266,0.0878 -0.008,0.12784 0.004,0.009 0.0104,0.0179 0.0152,0.0271 -0.0294,0.0207 -0.0636,0.0417 -0.0963,0.0619 -0.009,-0.0548 -0.0147,-0.10971 -0.0138,-0.16419 8.2e-4,-0.0498 0.006,-0.0943 0.0103,-0.14007 z m -5.20364,-1.30072 c 0.002,0.012 0.003,0.0247 0.004,0.0364 -0.0384,0.008 -0.0761,0.0175 -0.114137,0.0267 0.008,-0.007 0.0167,-0.013 0.025,-0.0195 0.0287,-0.0139 0.0565,-0.0294 0.085,-0.0436 z m -0.223537,0.15142 c 0.0226,0.0181 0.0428,0.0364 0.0593,0.0561 -0.007,0.006 -0.0138,0.0116 -0.0207,0.0174 -0.0288,-0.0129 -0.0582,-0.0239 -0.08713,-0.0362 0.01588,-0.0128 0.03263,-0.0245 0.04852,-0.0373 z m 3.437877,1.00628 c 0.007,0.0181 0.0111,0.0327 0.0185,0.0509 -0.0104,0.008 -0.0216,0.0153 -0.0323,0.0229 1.9e-4,-0.0239 0.008,-0.0488 0.0136,-0.0739 z m -3.466257,-0.8764 c -0.03309,0.0279 -0.07111,0.0595 -0.103222,0.0858 -0.0073,-0.0159 -0.01997,-0.0278 -0.03,-0.0418 0.0445,-0.0147 0.08785,-0.0305 0.133232,-0.044 z m 3.768687,1.10341 c 8.4e-4,0.0123 0.002,0.018 0.004,0.0289 -0.0367,0.0106 -0.0736,0.0174 -0.11126,0.0119 -0.005,-7.1e-4 -0.007,-0.003 -0.0125,-0.003 0.0126,-0.0123 0.0252,-0.0247 0.0378,-0.037 0.0213,5.3e-4 0.0562,-5.8e-4 0.082,-4.8e-4 z m -3.40363,-0.86655 c 0.004,0.002 0.006,0.004 0.01,0.006 -0.0102,0.0149 -0.0205,0.0294 -0.0255,0.0472 -0.002,0.007 7.2e-4,0.0135 -5e-5,0.0203 -0.008,0.003 -0.013,0.007 -0.0199,0.0102 -0.0159,-0.005 -0.0318,-0.0106 -0.0479,-0.0149 0.0262,-0.0203 0.0549,-0.0454 0.0836,-0.0686 z m -1.530978,-0.40195 c 4.49e-4,0.002 0.0023,0.004 0.0027,0.006 -0.01069,10e-4 -0.01972,0.002 -0.03054,0.002 0.009,-0.003 0.01862,-0.005 0.02771,-0.008 z m 4.780188,1.33965 c 0.005,0.008 0.01,0.0176 0.0152,0.025 -0.017,6.1e-4 -0.0296,0.004 -0.0457,0.005 0.01,-0.0101 0.0203,-0.0196 0.0303,-0.0293 z m -3.905255,-1.00303 c 0.0051,0.0159 0.01113,0.0317 0.01726,0.0474 -0.0076,0.005 -0.01452,0.0107 -0.02196,0.0161 5.02e-4,-0.0212 0.003,-0.0422 0.0047,-0.0635 z m 2.350935,0.64225 c 1.2e-4,0.007 0.003,0.0123 0.004,0.0183 -0.0192,0.01 -0.031,0.0163 -0.051,0.0265 0.0177,-0.0169 0.0293,-0.0287 0.0463,-0.0449 z m -3.257033,-0.77271 c -0.01331,0.0126 -0.02378,0.0277 -0.03653,0.0405 -0.0032,1.9e-4 -0.0061,4.3e-4 -0.0095,0.002 -0.02531,-5.7e-4 -0.05071,-8.5e-4 -0.07565,-0.003 -0.02863,-0.002 -0.05704,-0.005 -0.08562,-0.008 0.06916,-0.0102 0.137963,-0.022 0.20735,-0.0311 z m 1.534583,0.41844 c 0.0212,0.01 0.042,0.0175 0.0636,0.0243 0.006,0.0163 0.01,0.0328 0.0125,0.0493 0.007,-0.0132 0.0144,-0.0259 0.0182,-0.0401 0.0166,0.004 0.0331,0.005 0.0497,0.006 0.007,0.0128 0.0125,0.024 0.0214,0.0378 -0.0804,0.0712 -0.15852,0.14478 -0.2346,0.22068 -0.007,-0.003 -0.0159,-0.004 -0.0236,-0.006 0.0201,-0.0204 0.0413,-0.0398 0.0598,-0.0615 0.0351,-0.041 0.0691,-0.0851 0.0974,-0.13174 l 1.3e-4,-5.1e-4 c 0.01,0.009 0.0166,0.009 0.0163,-0.003 -1.2e-4,-0.007 -0.003,-0.0148 -0.005,-0.0222 -0.004,0.008 -0.007,0.0169 -0.012,0.0246 -0.0158,-0.0135 -0.0388,-0.0548 -0.0642,-0.0979 z m -9.399075,-2.40078 -0.138521,-1.5e-4 c -0.04678,0.0442 -0.07162,0.12435 -0.112662,0.17685 -0.0045,0.005 -0.0083,0.0107 -0.01177,0.0161 -0.05813,0.0137 -0.118905,0.0128 -0.178446,0.0191 -0.06169,-0.0186 -0.08261,-0.0263 -0.114011,-0.0357 -0.0026,-0.002 -0.0061,-0.004 -0.0084,-0.006 -0.01107,-0.0166 -0.02011,-0.035 -0.03376,-0.0497 -0.01119,-0.0123 -0.005,0.007 0.0035,0.0309 -0.02253,-0.0133 -0.04539,-0.0271 -0.06685,-0.042 -0.0039,0.003 -0.0067,0.006 -0.01049,0.009 -0.01063,-0.007 -0.02714,-0.0203 -0.03998,-0.0305 l 1e-4,3.31004 2.534727,2.7e-4 -2.73e-4,-0.55005 -1.823237,-8e-5 2.45e-4,-0.3723 c -0.0079,-0.005 -0.01546,-0.0114 -0.02329,-0.0169 0.0098,-0.0157 0.01318,-0.0237 0.02285,-0.0393 l 3.49e-4,-1.45884 c -0.01573,-0.003 -0.03179,-0.002 -0.04707,0.004 -0.0038,-0.001 -0.007,-8.5e-4 -0.01049,-7.4e-4 5.24e-4,-0.003 0.003,-0.012 0.0034,-0.0146 0.0026,-0.0176 0.0087,-0.0369 0.01283,-0.056 0.005,-0.007 0.01058,-0.0132 0.01547,-0.0199 0.0056,-0.002 0.0115,-0.003 0.01704,-0.004 0.0026,-3.5e-4 0.0062,-0.002 0.0091,-0.004 z m -0.664989,-3e-5 -0.04651,-1.4e-4 -2e-4,0.0866 c 0.01451,-0.029 0.03145,-0.0576 0.04671,-0.0865 z m 9.769477,2.61773 c 0.003,0.003 0.007,0.005 0.0102,0.008 -0.003,-9.5e-4 -0.004,-0.002 -0.007,-0.003 -4.4e-4,-0.002 -0.001,-0.002 -0.003,-0.005 z m 1.839497,0.55438 -1.4e-4,5e-4 c -0.0272,0.0347 -0.0456,0.0723 -0.0568,0.11212 l -6.4e-4,3.7e-4 c 0.001,-0.036 0.001,-0.0717 0.002,-0.10751 0.0185,-0.002 0.0375,-7.3e-4 0.0555,-0.005 z m -6.686851,-1.69328 c 0.0012,0.003 0.0028,0.006 0.0039,0.009 -8.57e-4,4.6e-4 -0.0013,6.8e-4 -0.0025,0.001 -8.96e-4,-0.004 -0.0025,-0.007 -0.0046,-0.0106 10e-4,-10e-6 0.0021,3.1e-4 0.0031,3.1e-4 z m -5.600397,-1.47919 -0.711625,3.1e-4 8.3e-5,0.71049 c 0.01361,0.006 0.02747,0.0125 0.03988,0.0169 -0.01229,0.0223 -0.027,0.0466 -0.04002,0.0695 l 4.35e-4,1.24827 c 0,0.2717 -0.06831,0.48089 -0.204973,0.62719 -0.136655,0.14469 -0.332137,0.2169 -0.586157,0.2169 -0.247592,2e-5 -0.43586,-0.0692 -0.564468,-0.20746 -0.118427,-0.1304 -0.179096,-0.31937 -0.187103,-0.56159 -0.04827,0.0819 -0.09633,0.16393 -0.137944,0.24926 -0.003,0.007 -0.0059,0.0139 -0.0097,0.0204 -0.01556,0.0148 -0.03398,0.0288 -0.04912,0.0436 0.0065,-0.0205 0.01318,-0.0411 0.02068,-0.0613 0.06191,-0.0989 0.112098,-0.17725 0.172273,-0.28553 l 4.99e-4,1.3e-4 c 3.33e-4,1.6e-4 5.32e-4,5.9e-4 8.31e-4,7.7e-4 -8.9e-5,-0.006 -9.39e-4,-0.012 -9.5e-4,-0.0185 l 1.68e-4,-0.80726 c -0.0037,0.003 -0.0083,0.006 -0.01219,0.01 -0.0094,0.008 -0.01842,0.0184 -0.02754,0.0269 -0.01433,-0.005 -0.027,-0.0103 -0.04265,-0.0145 0.0286,-0.0414 0.05498,-0.0843 0.08211,-0.12673 l 1.51e-4,-1.15661 -0.535499,-1.1e-4 c -0.05087,0.0171 -0.100483,0.0364 -0.147923,0.0609 -0.0095,0.005 -0.01861,0.0119 -0.02788,0.0182 l -1.39e-4,0.39586 c 0.01427,-0.0204 0.02561,-0.0407 0.01988,-0.0584 0.0073,-0.004 0.01309,-0.009 0.0199,-0.0124 l 3.65e-4,6.4e-4 c -0.01366,0.0405 -0.02623,0.0685 -0.04011,0.10374 l -2.12e-4,0.59379 c 0.01851,-0.032 0.03719,-0.064 0.05478,-0.0966 0.07534,-0.0383 0.147661,-0.0818 0.216828,-0.13236 -0.07346,0.0691 -0.161937,0.14602 -0.27165,0.23912 l 1.55e-4,1.01171 c -3e-6,0.19598 0.02968,0.36868 0.08246,0.52285 0.0014,1.5e-4 0.0078,10e-4 0.0078,10e-4 0.0074,-10e-4 0.01273,-0.006 0.01955,-0.007 l 4.98e-4,1.3e-4 c 0.01106,0.021 0.02431,0.0365 0.04651,0.0301 l 1.32e-4,-5e-4 c 0.0215,0.014 0.0429,0.0283 0.06321,0.0436 -0.002,0.0192 -0.0053,0.0382 -0.0064,0.0577 -0.0121,0.0143 -0.02446,0.0279 -0.03692,0.042 -0.0038,0.006 -0.0072,0.0105 -0.01067,0.0159 0.05575,0.10118 0.120572,0.19566 0.205359,0.27384 0.249195,0.22829 0.607804,0.34225 1.075647,0.34226 0.454865,-1e-5 0.811754,-0.10669 1.073578,-0.31689 0.122714,-0.18844 0.236383,-0.38407 0.308758,-0.59724 0.004,-0.0118 0.0062,-0.0252 0.01004,-0.0375 0.03742,-0.0402 0.07136,-0.0832 0.105903,-0.1257 0.01406,-0.0888 0.02327,-0.1815 0.02327,-0.28052 z m 11.198478,3.02091 c -0.005,0.004 -0.022,0.0188 -0.0263,0.0224 -0.0214,0.0172 -0.043,0.0344 -0.0642,0.0519 0.003,-0.0112 0.007,-0.027 0.0106,-0.0394 0.0266,-0.0118 0.0534,-0.023 0.0799,-0.0348 z m -0.34951,-0.0433 -2.6e-4,9.6e-4 c -7.7e-4,0.002 -0.002,0.005 -0.003,0.007 -0.0225,0.0102 -0.046,0.0182 -0.0686,0.0282 0.005,-0.005 0.01,-0.009 0.015,-0.0142 0.0182,-0.007 0.0387,-0.0144 0.0565,-0.0212 z m -5.367012,-1.42774 c 2.48e-4,5.9e-4 3.6e-4,0.001 4.49e-4,0.002 -8.16e-4,-1.2e-4 -10e-4,-3.7e-4 -0.002,-5.4e-4 4.3e-4,-4.4e-4 9.96e-4,-7.7e-4 0.0012,-7.1e-4 z m 0.202892,0.13729 -2.59e-4,9.7e-4 c 2.87e-4,6.7e-4 9.82e-4,5.8e-4 0.0015,0.002 -0.0012,0.002 -0.0031,0.003 -0.0043,0.004 -4.59e-4,-9.9e-4 -1.4e-5,-0.002 -4.14e-4,-0.004 0.0012,-7.1e-4 0.0023,-0.002 0.0035,-0.003 z m -1.331738,-0.30497 -0.23379,-1e-5 c -0.0125,0.0362 -0.02576,0.0722 -0.03352,0.10926 -0.04466,-0.0375 -0.09932,-0.0732 -0.151579,-0.10915 l -0.27602,-1.5e-4 7.5e-5,0.49489 c 0.0078,-0.002 0.01537,-0.005 0.0233,-0.007 -0.0079,0.008 -0.01542,0.0162 -0.02308,0.0243 l 10e-7,0.22363 0.69445,-1.1e-4 4.09e-4,-0.62047 c -5.78e-4,2.2e-4 -0.0012,3.5e-4 -0.0018,5.5e-4 -0.0033,-0.007 -0.0067,-0.0142 -0.01042,-0.021 0.0035,-0.0151 0.008,-0.03 0.01203,-0.0449 z m -4.626241,-1.22137 -6.33e-4,3.6e-4 c -3.35e-4,4.4e-4 -4.68e-4,9.1e-4 -7.58e-4,8.4e-4 -2.77e-4,-4e-4 -4.48e-4,-0.001 -7.07e-4,-0.001 5.4e-4,-8e-5 0.0011,-2e-5 0.0022,4e-5 z m 8.974067,2.40562 c 0.0062,0.008 0.01066,0.0176 0.01661,0.0259 -0.008,0.0105 -0.01753,0.0225 -0.02486,0.0329 -0.02617,0.037 -0.05004,0.0758 -0.07537,0.11355 -0.04283,-0.0422 -0.0855,-0.0846 -0.129907,-0.12415 0.03415,-0.01 0.0798,-0.0254 0.115683,-0.0364 0.02358,-0.003 0.05435,-0.005 0.07711,-0.008 0.0053,-6.4e-4 0.01615,-0.003 0.02104,-0.003 z m -3.119133,-0.80419 c 3.62e-4,8.7e-4 6.54e-4,0.001 0.002,0.003 -0.0021,1.4e-4 -0.0038,0 -0.006,4.5e-4 0.0011,-6.2e-4 0.0023,-0.002 0.004,-0.003 z m -5.992696,-1.50459 c 0.0078,0.022 0.01268,0.0422 0.01763,0.062 -0.01399,0.0213 -0.02219,0.0432 -0.03505,0.065 -0.01006,0.007 -0.01975,0.0139 -0.03068,0.0207 -0.01423,-0.005 -0.02448,-0.004 -0.04415,-0.0149 -0.0097,0.0207 -0.02037,0.0412 -0.0295,0.0622 -0.04146,0.0207 -0.09293,0.0277 -0.138838,0.041 0.06726,-0.0922 0.107298,-0.15514 0.217275,-0.22587 0.01006,-0.007 0.02773,-0.008 0.04329,-0.01 z m 4.244826,1.15935 c 0.02697,0.0176 0.05367,0.0349 0.08059,0.0526 0.05111,0.0334 0.103815,0.0649 0.153359,0.10051 8.5e-4,7e-4 0.0013,0.001 0.0032,0.002 -4.35e-4,0.004 -3e-4,0.009 -2.15e-4,0.0128 -0.03393,-0.0132 -0.06123,-0.0102 -0.09101,0.008 -0.07475,-0.0293 -0.150013,-0.0574 -0.223889,-0.0889 -9.22e-4,-4.2e-4 -0.0013,-10e-4 -0.0033,-10e-4 0.03742,-0.04 0.04963,-0.0514 0.08116,-0.0853 z m 1.896038,0.545 c 0.0031,0.004 0.0062,0.008 0.0096,0.0119 -0.01063,0.0203 -0.0164,0.0407 -0.02712,0.0613 -0.01748,-0.008 -0.03222,-0.0128 -0.0496,-0.0205 0.02023,-0.0218 0.02605,-0.0278 0.04799,-0.0513 0.0063,-3.8e-4 0.01205,1.2e-4 0.01827,-2.8e-4 z m -2.021933,-0.38663 c 0.02257,0.0213 0.0455,0.0424 0.06806,0.0594 -0.03285,5.1e-4 -0.06533,0.003 -0.098,0.006 0.01,-0.0218 0.01999,-0.0437 0.02981,-0.0653 z m 1.891542,0.50787 c 0.0094,0.004 0.01822,0.008 0.02766,0.0126 -0.01814,0.005 -0.03467,0.01 -0.05327,0.0151 0.0099,-0.01 0.01581,-0.0174 0.02567,-0.0279 z m -0.07916,0.0858 c 0.01078,0.008 0.02162,0.021 0.03221,0.0375 -0.01584,-0.007 -0.02777,-0.0168 -0.04683,-0.0229 0.0045,-0.005 0.01018,-0.01 0.01466,-0.0148 z m 10.942618,3.08133 c -0.0351,-0.006 -0.066,-0.0146 -0.10013,-0.0217 9.1e-4,5e-4 0.002,7.9e-4 0.002,0.001 0.0328,0.0109 0.0653,0.0167 0.0984,0.0202 z m -8.93744,-2.38857 c 0.0085,0.003 0.01776,0.005 0.0267,0.008 -0.0025,0.001 -0.0058,0.002 -0.0085,0.004 -0.01262,-0.002 -0.02521,-0.005 -0.03796,-0.008 0.0066,-0.001 0.01304,-0.003 0.0198,-0.004 z M 86.847691,143.3625 c -0.0428,0.0389 -0.08404,0.0796 -0.126102,0.11921 -0.003,0.003 -0.0059,0.006 -0.0088,0.009 -0.02385,-0.0157 -0.04604,-0.0377 -0.06848,-0.0579 0.06468,-0.0308 0.133516,-0.0526 0.20337,-0.0702 z m 1.844478,0.54775 2.51e-4,0.005 c 6.74e-4,-8.5e-4 0.005,0.0124 0.0047,0.008 -3.17e-4,-0.004 -0.0032,-0.009 -0.0049,-0.0136 z m 1.683971,0.52182 c -0.0084,0.0351 -0.01717,0.0703 -0.02461,0.10577 -0.06424,0.0829 -0.126871,0.16709 -0.188009,0.25242 -0.02864,-0.0222 -0.07793,-0.0496 -0.125082,-0.0763 0.02059,-0.0227 0.04036,-0.0463 0.0601,-0.0705 0.07066,0.006 0.128502,-0.0796 0.1859,-0.12675 0.03222,-0.0264 0.06114,-0.0564 0.09167,-0.0846 z m -4.723229,-1.25275 -0.03152,-1.6e-4 c 2.56e-4,0.0122 0.0011,0.024 10e-4,0.0361 0.01536,0.006 0.03118,0.0115 0.04637,0.0186 0.0011,-0.005 0.0056,-0.009 0.006,-0.0144 0.0012,-0.011 -0.01053,-0.0273 -0.02175,-0.0406 z m 4.955104,1.32979 c -0.0027,0.002 -0.0049,0.004 -0.0076,0.006 4.89e-4,-0.002 0.0013,-0.005 0.0018,-0.007 l 1.34e-4,-5e-4 c 0.0019,6.3e-4 0.0036,7.9e-4 0.0056,9.7e-4 z m -5.002135,-1.32996 -0.274021,3.9e-4 c -0.01995,0.0348 -0.03744,0.068 -0.05891,0.10405 -0.01931,0.0145 -0.03861,0.0305 -0.05874,0.0415 -0.01331,0.009 -0.02661,0.0182 -0.03994,0.0273 l -3.58e-4,1.80229 c 10e-7,0.19936 0.01431,0.42045 0.04325,0.66321 l -0.745376,-1.3093 c -0.0019,5.3e-4 -0.0037,0.001 -0.0056,0.003 0.0014,-0.002 0.0029,-0.002 0.0043,-0.004 l -0.201866,-0.35475 c -0.06579,0.0486 -0.130394,0.0991 -0.201657,0.13963 -0.0044,9e-4 -0.0095,5.7e-4 -0.01428,0.001 -0.0067,-0.002 -0.01365,-0.005 -0.0207,-0.007 -0.0012,0.003 -0.0028,0.006 -0.0036,0.009 -0.0041,-7e-5 -0.0085,8.3e-4 -0.01202,9.2e-4 -6.38e-4,-0.005 -2e-5,-0.0104 -7.87e-4,-0.0152 -0.0029,-8.7e-4 -0.007,-0.002 -0.0098,-0.003 7.49e-4,-0.002 0.0017,-0.004 0.0025,-0.006 0.0017,-0.003 0.0029,-0.006 0.0053,-0.008 5.41e-4,0.005 9.86e-4,0.0106 0.0016,0.016 0.0057,0.002 0.0113,0.003 0.01697,0.005 0.0036,-0.009 0.0097,-0.0162 0.01321,-0.0254 0.0013,-0.005 -0.0037,-0.0133 -0.0053,-0.0202 l -4.99e-4,-1.3e-4 c -0.0084,0.008 -0.01779,0.0161 -0.02586,0.0246 -5.7e-5,-0.001 1.7e-5,-0.003 6.9e-5,-0.004 0.007,-0.0145 0.01297,-0.0299 0.02011,-0.0449 0.0037,0.009 0.0045,0.016 0.0064,0.0242 0.05895,-0.0558 0.128313,-0.10042 0.198299,-0.14107 l -0.30999,-0.54423 c -0.0023,-5.9e-4 -0.0034,-0.002 -0.0059,-0.002 7.7e-4,-0.002 8.1e-4,-0.004 0.0016,-0.006 l -0.209175,-0.36741 -0.21135,1e-4 c -0.01184,0.007 -0.02441,0.0137 -0.03622,0.0214 -0.01,-0.008 -0.02106,-0.0139 -0.03124,-0.0212 l -0.0979,-4e-5 c -3.29e-4,0.002 -0.0011,0.005 -0.0013,0.007 -9.31e-4,-0.002 -0.0015,-0.005 -0.0024,-0.007 l -0.432208,-2.5e-4 1.71e-4,0.30285 c 0.067,-0.0535 0.135006,-0.11043 0.198406,-0.14746 0.07006,-0.0409 0.150044,-0.0615 0.226629,-0.0891 -0.0062,0.0239 -0.01338,0.0476 -0.0226,0.0704 -0.03032,0.0216 -0.06267,0.0405 -0.0923,0.063 -0.03536,0.0269 -0.118278,0.0446 -0.102231,0.086 0.0066,0.0173 0.0127,0.021 0.01918,0.0362 -0.01944,0.0223 -0.01264,0.051 0.03637,0.0879 -0.01079,0.0171 -0.02111,0.0344 -0.03246,0.0512 -0.0395,-0.0268 -0.0804,-0.0507 -0.12551,-0.0647 -0.03527,-0.0105 -0.07074,-2.1e-4 -0.105705,0.0171 l -1.1e-5,1.40167 c 0.0096,0.0193 0.01967,0.0385 0.02722,0.0581 0.01471,0.005 0.02679,0.009 0.04067,0.0119 -0.0035,0.0134 -0.0059,0.0334 -0.01115,0.0296 -0.01,0.0294 -0.02056,0.0586 -0.03054,0.0881 -0.0017,0.003 -0.0052,0.007 -0.0078,0.009 -0.0097,-0.0234 -0.01272,-0.0483 -0.01846,-0.0729 l -1.2e-5,1.40167 c 0.04996,-0.0191 0.100309,-0.0381 0.150856,-0.0559 0.0096,0.008 0.02108,0.015 0.03006,0.0236 0.105722,-0.0372 0.214881,-0.0667 0.317631,-0.11123 -0.04181,0.0666 -0.08124,0.13417 -0.117811,0.20008 l 0.250954,-1.5e-4 2.33e-4,-2.00349 c 2.9e-5,-0.0248 -0.0028,-0.0591 -0.0036,-0.0866 -0.05743,0.0578 -0.120019,0.12762 -0.182818,0.19711 0.01863,-0.0464 0.03587,-0.11379 0.05438,-0.18284 0.04068,-0.0373 0.08298,-0.0768 0.124533,-0.11536 -0.0066,-0.12319 -0.01699,-0.25977 -0.03584,-0.42529 l 1.070632,1.89239 c 2.89e-4,-2.6e-4 4.79e-4,-6.2e-4 7.56e-4,-8.3e-4 l 7.6e-4,-8.4e-4 c -8.7e-5,0.002 2.86e-4,0.003 2.51e-4,0.005 l 0.408043,0.72137 h 0.834591 l 2.04e-4,-0.42205 c -0.08447,0.0592 -0.1557,0.10862 -0.187431,0.12846 -0.0016,-0.0172 -0.0029,-0.0343 -0.0044,-0.0515 0.02387,-0.0393 0.04857,-0.0779 0.07441,-0.11595 0.01206,-0.0102 0.0241,-0.0213 0.036,-0.0305 0.03182,-0.0245 0.05276,-0.0505 0.0811,-0.0751 l 1.2e-4,-0.57348 c -0.0033,0.005 -0.0064,0.0108 -0.0097,0.0161 -0.02926,0.0234 -0.05857,0.0455 -0.08814,0.0674 -0.01167,-0.0345 -0.03168,-0.0651 -0.06041,-0.09 0.04724,-0.0344 0.09996,-0.0692 0.158211,-0.10527 l 1.76e-4,-1.76169 c -0.0034,-0.003 -0.0066,-0.007 -0.01017,-0.01 2.13e-4,-2.9e-4 5.59e-4,-5.9e-4 7.58e-4,-8.3e-4 0.0036,-0.005 0.0054,-0.0109 0.0091,-0.0158 l 1.01e-4,-0.222 c -0.04537,-0.0274 -0.09057,-0.0562 -0.13806,-0.0798 -0.0066,0.0286 -0.01949,0.0553 -0.03657,0.0806 -0.0065,-0.0241 -0.0098,-0.0574 -0.01074,-0.0997 -0.0075,-0.003 -0.01431,-0.006 -0.02168,-0.009 0.0038,-0.009 0.0037,-0.019 0.0071,-0.0286 z m -2.676314,1.87386 c -0.0089,-0.003 -0.01801,-0.007 -0.02718,-0.0104 l -3.35e-4,0.0213 c 0.02221,0.045 0.04008,0.0721 0.0399,0.0428 -2.48e-4,-0.0184 -0.0056,-0.036 -0.01238,-0.0536 z m 13.798374,1.10682 7.07e-4,0.001 c -0.0027,0.002 -0.0064,0.003 -0.0096,0.004 -4.48e-4,-0.002 -0.0023,-0.004 -0.0035,-0.007 0.004,5.1e-4 0.0079,0.002 0.01224,0.002 z m -0.132839,-0.0174 -1.34e-4,5e-4 c 0.0094,0.0239 0.01888,0.0505 0.02833,0.0739 -0.02302,0.0129 -0.04589,0.0255 -0.06872,0.0388 0.0012,-0.0393 0.0059,-0.0772 0.0081,-0.11607 0.01134,9.7e-4 0.01812,0.002 0.02974,0.003 8.66e-4,1.3e-4 0.0017,1e-5 0.0026,1.7e-4 z m -1.211329,-0.25718 4.99e-4,1.3e-4 c 6.38e-4,0.005 2e-5,0.0104 7.87e-4,0.0152 -0.0041,-7e-5 -0.01018,-6.6e-4 -0.01475,-8.5e-4 0.0044,-0.005 0.0092,-0.01 0.01354,-0.0146 z m -10.104433,-2.7054 -0.105426,1.1e-4 -1.59e-4,0.0844 c 0.03343,-0.0303 0.06967,-0.0572 0.105592,-0.0846 z m 3.678964,1.03495 c 0.004,0.008 0.0079,0.0168 0.01036,0.0252 0.0082,0.004 0.01682,0.0107 0.02538,0.0151 -0.0093,0.0192 -0.02188,0.0367 -0.03202,0.0556 -0.0086,0.005 -0.01807,0.0107 -0.02621,0.016 0.0047,-0.0369 0.01355,-0.0745 0.02247,-0.11168 z m 7.90614,2.14836 c -0.01,0.0295 -0.02118,0.0593 -0.02668,0.0876 -0.0088,-0.02 -0.01747,-0.04 -0.02618,-0.06 0.01749,-0.01 0.03524,-0.0182 0.05286,-0.0276 z m -9.824011,-2.58792 c 0.0019,0.004 0.0034,0.008 0.0054,0.0118 -0.0036,-0.002 -0.007,-0.005 -0.01094,-0.007 0.0014,-0.002 0.004,-0.003 0.0055,-0.005 z m 1.815411,0.48851 c -0.0046,-0.0136 0.03337,0.01 0.03568,0.0246 0.0011,0.008 -0.0064,0.012 -0.0092,0.0185 -0.0089,-0.0143 -0.02075,-0.0279 -0.02648,-0.0429 z m 7.489999,2.06419 c 0.01072,0.0133 0.023,0.0238 0.03409,0.0365 -0.01873,0.012 -0.03844,0.0229 -0.057,0.035 0.0037,-0.0253 0.01075,-0.0494 0.02286,-0.0714 z m 0.374893,0.11432 c 0.01987,0.0445 0.03977,0.0897 0.06069,0.1329 -0.0028,-0.001 -0.005,-0.002 -0.008,-0.002 -0.04945,-0.0195 -0.09892,-0.0438 -0.147344,-0.0711 0.03145,-0.0196 0.06189,-0.0407 0.094,-0.0593 z m -0.942467,-0.22634 c -0.04341,0.0353 -0.08071,0.0793 -0.115465,0.12743 -0.03218,0.0165 -0.06404,0.0346 -0.0965,0.0506 0.0048,-0.041 0.008,-0.0837 0.01005,-0.13533 4.23e-4,-7.7e-4 5.82e-4,-0.002 0.001,-0.002 0.04107,-0.0115 0.08197,-0.0239 0.122955,-0.0356 0.02604,-0.002 0.05199,-0.003 0.07793,-0.005 z m -10.254679,-2.74566 c -0.08298,0.10993 -0.176338,0.21861 -0.260291,0.31653 -0.02457,0.026 -0.05044,0.0507 -0.07511,0.0767 0.09301,-0.11723 0.184851,-0.23541 0.26344,-0.36222 0.02965,-0.0133 0.05026,-0.0222 0.07197,-0.031 z m -1.917654,0.15063 c -0.03245,0.0588 -0.05585,0.10087 -0.08567,0.15199 -0.05448,0.0561 -0.10861,0.11243 -0.162911,0.16874 -0.02081,0.0243 -0.04123,0.049 -0.0624,0.0731 -0.0018,-0.001 -0.0035,-0.003 -0.0042,-0.004 0.01415,-0.0219 0.02992,-0.0459 0.04413,-0.0669 0.09043,-0.10758 0.173267,-0.22184 0.27105,-0.32274 z m 1.715215,0.48309 c -9.74e-4,0.006 -0.003,0.0126 -0.0017,0.0183 -0.02443,0.0174 -0.0467,0.0371 -0.06963,0.0562 0.0216,-0.0223 0.0483,-0.0504 0.07132,-0.0745 z m 5.285999,1.4346 -6.33e-4,3.7e-4 c 0.01149,0.006 0.02491,0.016 0.02555,0.0244 3.79e-4,0.006 -0.0034,0.0106 -0.0043,0.0159 -0.0053,-0.003 -0.01,-0.005 -0.01494,-0.008 -0.008,-0.0104 -0.01871,-0.0203 -0.02453,-0.0323 -0.0033,-0.007 0.0069,-0.006 0.01877,-1.5e-4 z m 1.67972,0.52172 c -0.0016,0.005 -0.0033,0.008 -0.0044,0.0127 -0.0024,-0.003 -0.0041,-0.005 -0.0065,-0.008 0.0035,-0.002 0.0075,-0.003 0.0108,-0.004 z m 0.05837,0.0198 c 0.026,0.0274 0.05722,0.0485 0.0868,0.0714 -0.0035,0.01 -0.0064,0.0197 -0.01005,0.0294 -0.0014,0.002 -0.0031,0.003 -0.0045,0.005 -0.0151,-0.002 -0.02985,-0.006 -0.04521,-0.007 -0.0066,-0.0337 -0.01567,-0.0666 -0.02717,-0.0983 z m -0.118696,0.0516 3.68e-4,6.2e-4 c 0.0026,0.006 0.0058,0.013 0.0087,0.0194 -0.0032,0.004 -0.0064,0.008 -0.0096,0.0118 -0.005,-6.6e-4 -0.01118,-9.2e-4 -0.01649,-0.002 0.0058,-0.01 0.01132,-0.0198 0.01707,-0.0297 z m -11.019626,-2.95167 -0.463799,-1.5e-4 c -0.0011,0.006 -0.0015,0.0115 -0.0031,0.0174 -0.02404,0.009 -0.04808,0.017 -0.07189,0.0267 0.01027,-0.0167 0.01585,-0.0294 0.02419,-0.0444 l -0.32478,1.4e-4 -1.239475,3.39786 0.711489,2e-4 0.301166,-0.86838 0.83083,5e-5 0.464297,2.9e-4 0.201462,0.57988 c 0.02756,1.4e-4 0.05528,5.3e-4 0.08295,0.002 l -1.35e-4,5e-4 c 0.0021,0.004 0.004,0.009 0.0062,0.0129 -0.01605,0.0224 -0.03641,0.0553 -0.05457,0.0838 l 0.06552,0.18875 0.563329,7e-5 c 0.02954,-0.009 0.05931,-0.016 0.0889,-0.0243 -0.01387,0.008 -0.02804,0.0168 -0.0419,0.0246 l 0.09364,-6e-5 -0.711146,-1.95817 c -0.01794,0.023 -0.03295,0.0475 -0.05144,0.0702 -0.0053,-0.003 -0.0089,-0.007 -0.01392,-0.01 0.02164,-0.025 0.03856,-0.0532 0.05826,-0.0796 l -0.167351,-0.46161 c -0.0112,0.0256 -0.02848,0.0553 -0.04136,0.0825 -0.01114,0.0107 -0.02261,0.0225 -0.03427,0.032 -0.0079,0.006 -0.01598,0.0146 -0.0238,0.021 -0.03188,-0.0688 -0.06776,-0.13526 -0.11078,-0.19554 0.04276,-0.04 0.09081,-0.0891 0.138448,-0.13732 z m 4.103124,1.29685 c -0.0076,0.0134 -0.01469,0.0255 -0.02222,0.039 -0.0068,0.002 -0.0141,0.003 -0.02142,0.006 0.01432,-0.0152 0.02898,-0.0301 0.04363,-0.045 z m -1.560851,-0.31444 4.99e-4,1.3e-4 c -0.004,0.007 -0.01135,0.0141 -0.01527,0.0211 -0.01831,0.0374 -0.02038,0.0722 -0.01544,0.10553 -0.0142,-0.0154 -0.03378,-0.027 -0.04994,-0.0412 0.02713,-0.0282 0.05313,-0.0573 0.08015,-0.0855 z m 3.145366,0.90595 3.68e-4,6.2e-4 c -2.53e-4,4.8e-4 -2.67e-4,0.002 -5.18e-4,0.002 -0.0052,0.008 -0.01147,0.0158 -0.01707,0.0238 l -5e-4,-1.4e-4 c 0.0062,-0.008 0.01105,-0.018 0.01774,-0.0263 z m -6.203182,-1.5177 c -0.07876,0.0749 -0.154428,0.15188 -0.22667,0.23298 -0.01384,-0.011 -0.02753,-0.0225 -0.04285,-0.0318 0.08561,-0.0699 0.179494,-0.14277 0.269506,-0.20117 z m 10.069807,2.74478 4.99e-4,1.4e-4 c -0.01742,0.0264 -0.03419,0.0535 -0.04998,0.0807 -0.01802,-0.0131 -0.038,-0.0223 -0.05747,-0.0331 0.02733,-0.0112 0.05446,-0.0231 0.08044,-0.0347 0.0093,-0.004 0.01734,-0.009 0.02654,-0.0132 z m -9.974228,-2.59235 0.0506,0.16656 0.104164,0.32805 0.06356,0.18608 c 0.0068,-0.005 0.01295,-0.0101 0.02033,-0.016 0.102201,-0.0901 0.17564,-0.15289 0.247721,-0.21771 0.03784,0.079 0.06502,0.15134 0.07897,0.21644 -0.02598,0.0232 -0.05156,0.0434 -0.07761,0.068 -0.01116,-0.0113 -0.02369,-0.0212 -0.03469,-0.0323 0.0077,0.006 0.01643,0.0106 0.01758,0.0202 0.0018,0.009 -0.0028,0.0227 -0.0035,0.0333 -8.21e-4,7.8e-4 -0.0014,0.002 -0.002,0.004 -0.0047,-0.002 -0.01,-0.004 -0.01496,-0.006 -0.01145,-0.0202 -0.02293,-0.0405 -0.03233,-0.061 -0.0634,-0.006 -0.128704,-0.0236 -0.187737,-0.002 -0.0028,0.001 -0.0048,0.003 -0.0075,0.004 l 0.267168,0.77992 -0.927097,-1.8e-4 c -0.0032,0.007 -0.0071,0.0145 -0.01012,0.0219 -0.03082,-0.002 -0.06333,-0.003 -0.09739,9e-5 0.02051,-0.0243 0.04771,-0.0425 0.07251,-0.063 0.237893,-0.69286 0.378785,-1.10787 0.400533,-1.17933 0.02252,-0.074 0.04178,-0.14008 0.05791,-0.19795 z m 9.903917,2.711 c -0.01412,0.026 -0.02915,0.0519 -0.04193,0.0786 -1.45e-4,3.1e-4 -1.3e-4,7.2e-4 -2.58e-4,9.6e-4 -0.03365,0.0278 -0.06461,0.0527 -0.08503,0.0698 -0.0048,-0.005 -0.0094,-0.009 -0.01414,-0.0131 0.03596,-0.0353 0.07114,-0.0714 0.108808,-0.10459 -6.11e-4,-10e-4 -0.001,-0.002 -0.0017,-0.004 0.0094,-0.008 0.01886,-0.0171 0.02875,-0.0254 0.0012,-7.1e-4 0.0034,-0.002 0.0056,-0.003 z m -1.827188,-0.47251 8.34e-4,7.5e-4 c 0.0046,0.002 0.0088,0.004 0.01296,0.006 -0.004,0.007 -0.0098,0.014 -0.01382,0.0214 0.0035,-0.01 0.0038,-0.0187 7e-6,-0.0278 z m -0.01817,0.0578 c -0.04849,0.0821 -0.09858,0.16282 -0.153209,0.24036 -0.0048,-0.005 -0.01062,-0.0111 -0.01602,-0.0161 0.02291,-0.0252 0.04396,-0.0513 0.07376,-0.0856 -0.02618,-0.0371 0.05496,-0.0887 0.09547,-0.13867 z m -0.351516,0.002 c -0.01184,0.0133 -0.02518,0.0249 -0.03773,0.037 -8.58e-4,-6.6e-4 -0.0018,-0.002 -0.0037,-0.002 0.0014,-0.003 0.0028,-0.006 0.0047,-0.009 0.0127,-0.008 0.02439,-0.0171 0.03678,-0.0255 z m -8.307398,-2.02054 c -0.01008,0.0183 -0.02238,0.036 -0.03326,0.0542 -0.0048,-0.005 -0.01022,-0.011 -0.01552,-0.016 0.01594,-0.0131 0.03213,-0.026 0.04878,-0.0383 z m 8.439497,2.29025 c 0.0093,0.008 0.01975,0.0136 0.02911,0.0212 -0.06761,0.0796 -0.125398,0.15194 -0.191797,0.21664 -0.04839,-0.0161 -0.08865,-0.0258 -0.111829,-0.0279 -0.04338,-0.005 -0.118237,0.0297 -0.196652,0.073 0.04871,-0.0678 0.09186,-0.13922 0.136032,-0.21018 0.07914,0.0254 0.166009,0.0236 0.256699,-0.0216 0.033,-0.0165 0.05689,-0.0333 0.07831,-0.0507 z m -5.701334,-1.5138 3.68e-4,6.3e-4 c 0.0062,0.004 0.0096,0.0134 0.01433,0.0204 -0.0066,0.005 -0.01099,0.0101 -0.01729,0.0146 -0.0047,-0.002 -0.0098,-0.004 -0.0147,-0.007 0.0021,-0.0102 0.0033,-0.0204 0.005,-0.0308 0.0039,0.001 0.0086,-8e-4 0.01224,0.002 z m -2.29837,-0.59286 c -0.04017,0.0834 -0.07057,0.17106 -0.09189,0.26106 -0.01881,0.0138 -0.04326,0.0261 -0.06248,0.0395 0.02819,-0.0666 0.05666,-0.13133 0.08846,-0.20634 0.08518,-0.11891 0.03541,-0.0492 0.06588,-0.0942 z m 7.000102,1.89389 c 0.006,0.005 0.01281,0.009 0.01889,0.0133 0.01152,0.0103 0.02565,0.0184 0.03816,0.0273 0.0079,0.005 0.01547,0.009 0.02364,0.0136 0.01105,0.0194 0.01948,0.0337 0.02976,0.0487 -0.03059,0.0334 -0.05717,0.0643 -0.08913,0.097 -0.03903,-0.039 -0.07826,-0.0777 -0.121764,-0.10862 0.03317,-0.0298 0.06549,-0.0598 0.100437,-0.0913 z m 0.09337,0.0608 c 4.52e-4,2.4e-4 0.0011,1.9e-4 0.002,5.4e-4 0.01114,0.007 0.02278,0.0134 0.03485,0.0197 -0.002,0.004 -0.0046,0.005 -0.0074,0.007 -0.01065,-0.007 -0.02059,-0.0165 -0.02963,-0.0272 z m -6.524487,-1.74616 c 0.0026,0.006 0.0061,0.012 0.0087,0.0173 l -1.32e-4,4.9e-4 c 0.0078,0.001 0.01564,0.002 0.0235,0.002 -0.01111,-0.006 -0.0227,-0.0123 -0.03199,-0.0204 z m 0.03199,0.0204 c 0.0045,0.002 0.0088,0.005 0.01268,0.009 -0.0032,-0.003 -0.0069,-0.005 -0.0092,-0.008 -0.0012,-5e-5 -0.0024,-3.5e-4 -0.0036,-4.3e-4 z m 6.551789,1.75608 -1.8e-5,0.002 c 0.0047,0.002 0.0086,0.006 0.01394,0.008 -2.28e-4,0.002 -7e-5,0.004 -5.87e-4,0.006 l -6.33e-4,3.7e-4 c -0.006,-6.8e-4 -0.01,-0.005 -0.0152,-0.007 -3.33e-4,-0.001 4e-6,-0.001 -1.9e-4,-0.003 8.17e-4,-0.002 0.0016,-0.003 0.0025,-0.006 z m -7.58472,-1.71668 3.65e-4,6.4e-4 c 0.008,0.001 0.01856,0.005 0.02831,0.008 -0.0098,0.0339 -0.01788,0.0691 -0.02399,0.10538 -0.01562,-0.0217 -0.02856,-0.0418 -0.04394,-0.0636 0.01454,-0.0195 0.0196,-0.0234 0.03714,-0.0468 7.03e-4,-8.4e-4 0.0015,-0.002 0.002,-0.004 z m 4.649635,1.33573 c 0.0049,0.009 0.0095,0.0175 0.01435,0.0263 -0.01666,0.0201 -0.06159,0.0717 -0.06611,0.077 -0.01482,0.0244 -0.0313,0.0481 -0.0471,0.072 1.94e-4,-0.049 -0.0015,-0.0979 0.0018,-0.14663 9.93e-4,-0.0114 0.0037,-0.0221 0.0047,-0.0335 0.02512,0.004 0.05458,0.007 0.09229,0.005 z m -4.732772,-1.22911 c 0.02314,0.0311 0.04651,0.0611 0.06966,0.0914 -0.01988,0.005 -0.03815,0.0106 -0.05839,0.0143 -0.0079,-0.0364 -0.01275,-0.0693 -0.01558,-0.10159 0.0012,-0.002 0.0028,-0.002 0.0043,-0.004 z m 1.752446,0.68357 c -0.0013,0.032 -0.0058,0.0564 -0.02835,0.0459 0.0095,-0.0161 0.01863,-0.0305 0.02835,-0.0459 z m 3.802622,1.06063 c 0.01405,-3.8e-4 0.02653,0.002 0.03492,0.0114 0.0024,0.003 0.0033,0.008 0.0054,0.0121 -0.02572,0.0365 -0.05521,0.0817 -0.07643,0.10952 -0.0031,-0.0407 -0.0065,-0.0813 -0.0101,-0.12201 0.01592,-0.006 0.03194,-0.0103 0.04631,-0.0111 z m -5.74012,-1.52678 c 0.02024,0.0485 0.06234,0.0915 0.138892,0.12656 -0.07708,0.057 -0.154986,0.11006 -0.23882,0.15054 0.0072,-0.0344 0.01619,-0.0685 0.02429,-0.10263 -0.01725,-0.01 -0.03282,-0.0274 -0.04932,-0.0416 0.0581,-0.0611 0.08926,-0.0951 0.124954,-0.1329 z m 5.254468,1.4245 c 0.02546,0.012 0.05065,0.0229 0.07605,0.0317 -0.0092,0.011 -0.01728,0.0226 -0.02615,0.0337 -0.02699,10e-4 -0.04947,-0.0131 -0.06949,-0.0341 0.0069,-0.0103 0.01271,-0.0204 0.01944,-0.0306 z m 0.417567,0.27451 c -0.0076,0.009 -0.01508,0.0173 -0.0225,0.0261 -0.005,-0.0123 -0.0087,-0.0228 -0.01121,-0.0341 0.01187,0.004 0.02188,0.005 0.0337,0.008 z m -0.107093,0.0103 c 0.005,0.0223 0.01067,0.0446 0.01516,0.0672 -0.0187,0.0114 -0.03695,0.0245 -0.05588,0.0348 0.01328,-0.0341 0.02568,-0.0688 0.0407,-0.10198 z m -4.525901,-0.77723 c 1.23e-4,0.001 2.81e-4,0.002 6.72e-4,0.003 -0.0054,0.005 -0.01284,0.007 -0.01862,0.0116 -0.0028,-0.005 -0.0069,-0.009 -0.0072,-0.0132 0.0082,1.4e-4 0.01682,-6.7e-4 0.02503,-0.002 z m -1.287633,0.24721 c -0.03,0.0359 -0.05792,0.0731 -0.09031,0.10742 -0.0328,0.0347 -0.06763,0.0674 -0.102712,0.0998 0.0011,-0.003 0.0015,-0.007 0.0027,-0.01 0.01514,-0.0175 0.02905,-0.036 0.04426,-0.0534 0.04983,-0.0465 0.09759,-0.0957 0.146074,-0.14384 z m -0.36022,0.39996 3.64e-4,6.4e-4 3.67e-4,6.2e-4 c -5.92e-4,4.4e-4 -7.9e-4,8.3e-4 -0.0018,5.6e-4 4.81e-4,-6e-4 5.46e-4,-8.9e-4 10e-4,-0.002 z" />
      </g>
    </g>
  </g>
</svg>
