<?xml version="1.0" encoding="UTF-8" standalone="no"?>
<!-- Created with Inkscape (http://www.inkscape.org/) -->

<svg
   width="716.04919"
   height="517.53375"
   id="svg2"
   sodipodi:version="0.32"
   inkscape:version="1.3.2 (091e20ef0f, 2023-11-25)"
   sodipodi:docname="transformador_real_circuit_equivalent.svg"
   version="1.0"
   inkscape:output_extension="org.inkscape.output.svg.inkscape"
   xmlns:inkscape="http://www.inkscape.org/namespaces/inkscape"
   xmlns:sodipodi="http://sodipodi.sourceforge.net/DTD/sodipodi-0.dtd"
   xmlns="http://www.w3.org/2000/svg"
   xmlns:svg="http://www.w3.org/2000/svg"
   xmlns:rdf="http://www.w3.org/1999/02/22-rdf-syntax-ns#"
   xmlns:cc="http://creativecommons.org/ns#"
   xmlns:dc="http://purl.org/dc/elements/1.1/">
  <defs
     id="defs4">
    <marker
       inkscape:stockid="Arrow1Lend"
       orient="auto"
       refY="0"
       refX="0"
       id="Arrow1Lend"
       style="overflow:visible">
      <path
         id="path4167"
         d="M 0,0 5,-5 -12.5,0 5,5 Z"
         style="fill-rule:evenodd;stroke:#000000;stroke-width:1pt;marker-start:none"
         transform="scale(-0.8)" />
    </marker>
    <marker
       inkscape:stockid="Dot_l"
       orient="auto"
       refY="0"
       refX="0"
       id="Dot_l"
       style="overflow:visible">
      <path
         id="path4105"
         d="m -2.5,-1 c 0,2.76 -2.24,5 -5,5 -2.76,0 -5,-2.24 -5,-5 0,-2.76 2.24,-5 5,-5 2.76,0 5,2.24 5,5 z"
         style="fill-rule:evenodd;stroke:#000000;stroke-width:1pt;marker-start:none;marker-end:none"
         transform="matrix(0.8,0,0,0.8,5.700394,0.8)" />
    </marker>
    <marker
       inkscape:stockid="Arrow2Lend"
       orient="auto"
       refY="0"
       refX="0"
       id="Arrow2Lend"
       style="overflow:visible">
      <path
         id="path4149"
         style="font-size:12px;fill-rule:evenodd;stroke-width:0.625;stroke-linejoin:round"
         d="M 8.7185878,4.0337352 -2.2072895,0.01601326 8.7185884,-4.0017078 c -1.7454984,2.3720609 -1.7354408,5.6174519 -6e-7,8.035443 z"
         transform="matrix(-1.1,0,0,-1.1,5.5,0)" />
    </marker>
    <marker
       inkscape:stockid="Arrow2Lstart"
       orient="auto"
       refY="0"
       refX="0"
       id="Arrow2Lstart"
       style="overflow:visible">
      <path
         id="path11473"
         style="font-size:12px;fill-rule:evenodd;stroke-width:0.625;stroke-linejoin:round"
         d="M 8.7185878,4.0337352 -2.2072895,0.01601326 8.7185884,-4.0017078 c -1.7454984,2.3720609 -1.7354408,5.6174519 -6e-7,8.035443 z"
         transform="matrix(1.1,0,0,1.1,-5.5,0)" />
    </marker>
    <marker
       inkscape:stockid="Arrow1Lstart"
       orient="auto"
       refY="0"
       refX="0"
       id="Arrow1Lstart"
       style="overflow:visible">
      <path
         id="path11491"
         d="M 0,0 5,-5 -12.5,0 5,5 Z"
         style="fill-rule:evenodd;stroke:#000000;stroke-width:1pt;marker-start:none"
         transform="scale(0.8)" />
    </marker>
  </defs>
  <sodipodi:namedview
     id="base"
     pagecolor="#ffffff"
     bordercolor="#666666"
     borderopacity="1.0"
     inkscape:pageopacity="0.0"
     inkscape:pageshadow="2"
     inkscape:zoom="0.56490458"
     inkscape:cx="326.60383"
     inkscape:cy="363.77825"
     inkscape:document-units="px"
     inkscape:current-layer="layer1"
     inkscape:window-width="1366"
     inkscape:window-height="707"
     inkscape:window-x="0"
     inkscape:window-y="0"
     showguides="true"
     inkscape:guide-bbox="true"
     height="275px"
     width="750px"
     inkscape:showpageshadow="2"
     inkscape:pagecheckerboard="0"
     inkscape:deskcolor="#d1d1d1"
     inkscape:window-maximized="1" />
  <metadata
     id="metadata7">
    <rdf:RDF>
      <cc:Work
         rdf:about="">
        <dc:format>image/svg+xml</dc:format>
        <dc:type
           rdf:resource="http://purl.org/dc/dcmitype/StillImage" />
      </cc:Work>
    </rdf:RDF>
  </metadata>
  <g
     inkscape:label="Layer 1"
     inkscape:groupmode="layer"
     id="layer1"
     transform="translate(-36.50808,233.05794)">
    <path
       style="fill:#ffffff;fill-opacity:1;fill-rule:evenodd;stroke:#000000;stroke-width:1.5;stroke-linecap:square;stroke-linejoin:miter;stroke-miterlimit:4;stroke-dasharray:none;stroke-dashoffset:0;stroke-opacity:1"
       d="M 189.53917,-159.87893 V -37.518184"
       id="rect7491-3" />
    <path
       style="fill:#ffffff;fill-opacity:1;fill-rule:evenodd;stroke:#000000;stroke-width:1.5;stroke-linecap:square;stroke-linejoin:miter;stroke-miterlimit:4;stroke-dasharray:none;stroke-dashoffset:0;stroke-opacity:1"
       d="M 200.63277,-37.518184 V -159.87893"
       id="path8367-6" />
    <path
       sodipodi:nodetypes="cc"
       style="fill:#000000;fill-opacity:1;fill-rule:evenodd;stroke:#000000;stroke-width:1.24156;stroke-linecap:butt;stroke-linejoin:miter;stroke-miterlimit:4;stroke-opacity:1;marker-start:none;marker-end:none"
       d="m 721.33708,-161.18374 v 118.2357"
       id="path19084-5" />
    <path
       style="fill:#000000;fill-opacity:1;fill-rule:evenodd;stroke:none;stroke-width:2.48312px;stroke-linecap:butt;stroke-linejoin:miter;stroke-opacity:1"
       d="m 721.34009,-34.625443 3.26627,-12.189907 h -7.10381 z"
       id="path19086-3" />
    <path
       sodipodi:nodetypes="cc"
       style="fill:#000000;fill-opacity:1;fill-rule:evenodd;stroke:#000000;stroke-width:1.24156;stroke-linecap:butt;stroke-linejoin:miter;stroke-miterlimit:4;stroke-opacity:1;marker-start:none;marker-end:none"
       d="m 692.28858,-212.55953 h 27.07291"
       id="path20045-2" />
    <path
       style="fill:#000000;fill-opacity:1;fill-rule:evenodd;stroke:none;stroke-width:2.48312px;stroke-linecap:butt;stroke-linejoin:miter;stroke-opacity:1"
       d="m 728.87891,-212.84516 -12.18991,-3.26627 v 7.1038 z"
       id="path20047-7" />
    <path
       id="path7564-6"
       style="fill:none;fill-opacity:1;stroke:#000000;stroke-width:1.5;stroke-linecap:square;stroke-linejoin:round;stroke-miterlimit:4;stroke-dashoffset:0;stroke-opacity:1"
       d="m 69.46748,-196.1396 h 95.91338 v 33.68906 0 c 8.77704,0 15.90044,7.27512 15.90044,16.23911 0,8.96398 -7.1234,16.23907 -15.90044,16.23907 -5.1587,0 -12.79643,-2.654 -12.80822,-6.72497 -0.0118,-4.071 7.55193,-6.74339 12.80822,-6.74339 8.77704,0 15.90044,7.27512 15.90044,16.23911 0,8.96396 -7.1234,16.23908 -15.90044,16.23908 -5.26947,0 -12.31899,-2.65351 -12.50585,-6.5983 -0.18688,-3.94478 7.36329,-6.87007 12.50585,-6.87007 8.77704,0 15.90044,7.27512 15.90044,16.23909 0,8.963976 -7.1234,16.239076 -15.90044,16.239076 -5.19435,0 -12.69594,-2.39957 -12.72677,-6.45723 -0.0308,-4.057666 7.30512,-7.011146 12.72677,-7.011146 8.77704,0 15.90044,7.275096 15.90044,16.239086 0,8.96397 -7.1234,16.23908 -15.90044,16.23908 -5.34549,0 -12.96866,-2.77675 -12.93332,-6.88685 0.0353,-4.11009 7.70785,-6.58149 12.93332,-6.58149 8.77704,0 15.90044,7.27512 15.90044,16.23909 0,8.96398 -7.1234,16.2391 -15.90044,16.2391 -5.17295,0 -12.64404,-2.60146 -12.64461,-6.81657 -6e-4,-4.21514 7.40706,-6.6518 12.64461,-6.6518 8.77704,0 15.90044,7.27512 15.90044,16.23908 0,8.96399 -7.1234,16.23911 -15.90044,16.23911 v 33.90854 H 69.46748"
       sodipodi:nodetypes="ccccsssssssssssssssssssssccs" />
    <path
       id="path20073-1"
       d="m 64.672262,-161.54793 v 118.2357"
       style="fill:#000000;fill-opacity:1;fill-rule:evenodd;stroke:#000000;stroke-width:1.24156;stroke-linecap:butt;stroke-linejoin:miter;stroke-miterlimit:4;stroke-opacity:1;marker-start:none;marker-end:none"
       sodipodi:nodetypes="cc" />
    <path
       id="path20075-8"
       d="m 64.675267,-34.989633 3.26627,-12.189907 H 60.83773 Z"
       style="fill:#000000;fill-opacity:1;fill-rule:evenodd;stroke:none;stroke-width:2.48312px;stroke-linecap:butt;stroke-linejoin:miter;stroke-opacity:1" />
    <circle
       style="fill:#ffffff;fill-opacity:1;fill-rule:evenodd;stroke:#000000;stroke-width:1.24156;stroke-linecap:square;stroke-linejoin:miter;stroke-miterlimit:4;stroke-dasharray:none;stroke-dashoffset:0;stroke-opacity:1"
       id="path6612-7"
       cx="-720.44531"
       cy="-0.9954744"
       r="4.8397923"
       transform="scale(-1,1)" />
    <circle
       id="path5737-9"
       style="fill:#ffffff;fill-opacity:1;fill-rule:evenodd;stroke:#000000;stroke-width:1.24156;stroke-linecap:square;stroke-linejoin:miter;stroke-miterlimit:4;stroke-dasharray:none;stroke-dashoffset:0;stroke-opacity:1"
       cx="-720.44531"
       cy="-196.45647"
       r="4.8397923"
       transform="scale(-1,1)" />
    <circle
       id="path6616-2"
       style="fill:none;fill-opacity:1;fill-rule:evenodd;stroke:#000000;stroke-width:1.24156;stroke-linecap:square;stroke-linejoin:miter;stroke-miterlimit:4;stroke-dasharray:none;stroke-dashoffset:0;stroke-opacity:1"
       cx="-64.264557"
       cy="-0.9954744"
       r="4.8397923"
       transform="scale(-1,1)" />
    <circle
       style="fill:none;fill-opacity:1;fill-rule:evenodd;stroke:#000000;stroke-width:1.24156;stroke-linecap:square;stroke-linejoin:miter;stroke-miterlimit:4;stroke-dasharray:none;stroke-dashoffset:0;stroke-opacity:1"
       id="path6614-0"
       cx="-64.264557"
       cy="-196.45647"
       r="4.8397923"
       transform="scale(-1,1)" />
    <path
       id="path7217-7"
       d="M 46.288561,-212.55953 H 73.361467"
       style="fill:#000000;fill-opacity:1;fill-rule:evenodd;stroke:#000000;stroke-width:1.24156;stroke-linecap:butt;stroke-linejoin:miter;stroke-miterlimit:4;stroke-opacity:1;marker-start:none;marker-end:none"
       sodipodi:nodetypes="cc" />
    <path
       id="path7219-3"
       d="m 82.878892,-212.84516 -12.189907,-3.26627 v 7.1038 z"
       style="fill:#000000;fill-opacity:1;fill-rule:evenodd;stroke:none;stroke-width:2.48312px;stroke-linecap:butt;stroke-linejoin:miter;stroke-opacity:1" />
    <path
       id="path7290-1"
       style="fill:none;fill-opacity:1;stroke:#000000;stroke-width:1.5;stroke-linecap:square;stroke-linejoin:round;stroke-miterlimit:4;stroke-dashoffset:0;stroke-opacity:1"
       d="m 518.31028,-128.62489 v -33.53541 h -85.67243 v 32.5654 0 c -4.8039,0 -8.70273,3.98187 -8.70273,8.8881 0,4.90623 3.89883,8.88808 8.70273,8.88808 2.82351,0 7.00383,-1.45261 7.01029,-3.68076 0.006,-2.22817 -4.13337,-3.69084 -7.01029,-3.69084 -4.8039,0 -8.70273,3.98187 -8.70273,8.8881 0,4.90621 3.89883,8.88808 8.70273,8.88808 2.88413,0 6.74251,-1.45234 6.8448,-3.61142 0.10228,-2.15909 -4.03014,-3.76018 -6.8448,-3.76018 -4.8039,0 -8.70273,3.98187 -8.70273,8.888086 0,4.90622 3.89883,8.88808 8.70273,8.88808 2.84302,0 6.94883,-1.31335 6.96571,-3.53421 0.0169,-2.22087 -3.99828,-3.83739 -6.96571,-3.83739 -4.8039,0 -8.70273,3.98185 -8.70273,8.88808 0,4.90622 3.89883,8.88808 8.70273,8.88808 2.92573,0 7.0981,-1.51979 7.07875,-3.76935 -0.0193,-2.24956 -4.21871,-3.60223 -7.07875,-3.60223 -4.8039,0 -8.70273,3.98187 -8.70273,8.88809 0,4.90622 3.89883,8.88809 8.70273,8.88809 2.83131,0 6.92042,-1.42385 6.92074,-3.73089 3.2e-4,-2.30706 -4.05408,-3.64071 -6.92074,-3.64071 -4.8039,0 -8.70273,3.98187 -8.70273,8.88808 0,4.90623 3.89883,8.8881 8.70273,8.8881 v 32.55904 h 85.67243 v -41.53542 M 475.94467,-196.09827 v 33.79749 m 0,135.488556 v 25.61469 m 49.8472,-127.427356 H 510.8287 v 59.852676 h 14.96317 z"
       sodipodi:nodetypes="cccccsssssssssssssssssssssccccccccccccc" />
    <path
       id="path3254-4"
       style="fill:none;fill-opacity:1;stroke:#000000;stroke-width:1.5;stroke-linecap:square;stroke-linejoin:round;stroke-miterlimit:4;stroke-dashoffset:0;stroke-opacity:1"
       d="m 666.93874,-196.1396 h 48.28599 m 0,195.124866 H 224.1711 v -14.89872 c -8.77703,0 -15.90043,-7.27512 -15.90043,-16.23911 0,-8.96399 7.1234,-16.23909 15.90043,-16.23909 4.97462,0 12.86567,3.03054 12.83649,6.86313 -0.0292,3.83259 -7.59075,6.60525 -12.83649,6.60525 -8.77703,0 -15.90043,-7.27512 -15.90043,-16.23911 0,-8.96396 7.1234,-16.23908 15.90043,-16.23908 5.23755,0 12.64523,2.43666 12.64462,6.6518 -5.7e-4,4.21511 -7.47165,6.81657 -12.64462,6.81657 -8.77703,0 -15.90043,-7.27512 -15.90043,-16.2391 0,-8.96397 7.1234,-16.23909 15.90043,-16.23909 5.22548,0 12.898,2.4714 12.93334,6.58149 0.0353,4.1101 -7.58784,6.88685 -12.93334,6.88685 -8.77703,0 -15.90043,-7.27511 -15.90043,-16.23908 0,-8.96399 7.1234,-16.239086 15.90043,-16.239086 5.42168,0 12.75764,2.95348 12.72679,7.011146 -0.0308,4.05766 -7.53242,6.45723 -12.72679,6.45723 -8.77703,0 -15.90043,-7.2751 -15.90043,-16.239076 0,-8.96397 7.1234,-16.23909 15.90043,-16.23909 5.14258,0 12.69274,2.92529 12.50587,6.87007 -0.18686,3.94479 -7.23639,6.5983 -12.50587,6.5983 -8.77703,0 -15.90043,-7.27512 -15.90043,-16.23908 0,-8.96399 7.1234,-16.23911 15.90043,-16.23911 5.2563,0 12.82001,2.67239 12.80824,6.74339 -0.0118,4.07097 -7.64953,6.72497 -12.80824,6.72497 -8.77703,0 -15.90043,-7.27509 -15.90043,-16.23907 0,-8.96399 7.1234,-16.23911 15.90043,-16.23911 5.22154,0 12.75591,2.55982 12.7764,6.7078 0.0205,4.14796 -7.53175,6.76059 -12.7764,6.76059 -8.77703,0 -15.90043,-7.27512 -15.90043,-16.23911 0,-8.96396 7.37954,-16.50218 15.90043,-16.23908 v -14.79481 l 123.71309,0.11555 h 178.35955 v 0 c 0,-4.8039 3.98187,-8.70273 8.8881,-8.70273 4.90623,0 8.88808,3.89883 8.88808,8.70273 0,2.8235 -1.45261,7.00383 -3.68076,7.01028 -2.22817,0.006 -3.69084,-4.13337 -3.69084,-7.01028 0,-4.8039 3.98187,-8.70273 8.8881,-8.70273 4.90621,0 8.88808,3.89883 8.88808,8.70273 0,2.88412 -1.45234,6.74251 -3.61142,6.84479 -2.15909,0.10228 -3.76018,-4.03013 -3.76018,-6.84479 0,-4.8039 3.98187,-8.70273 8.88809,-8.70273 4.90622,0 8.88808,3.89883 8.88808,8.70273 0,2.84301 -1.31335,6.94883 -3.53421,6.9657 -2.22087,0.0169 -3.83739,-3.99828 -3.83739,-6.9657 0,-4.8039 3.98185,-8.70273 8.88808,-8.70273 4.90622,0 8.88808,3.89883 8.88808,8.70273 0,2.92573 -1.51979,7.09809 -3.76935,7.07875 -2.24956,-0.0193 -3.60223,-4.21871 -3.60223,-7.07875 0,-4.8039 3.98187,-8.70273 8.88809,-8.70273 4.90622,0 8.88809,3.89883 8.88809,8.70273 0,2.8313 -1.42385,6.92042 -3.73089,6.92073 -2.30706,3.3e-4 -3.64071,-4.05408 -3.64071,-6.92073 0,-4.8039 3.98187,-8.70273 8.88808,-8.70273 4.90623,0 8.8881,3.89883 8.8881,8.70273 h 11.04325 m 0,-7.6955 v 14.96317 h 59.85268 v -14.96317 z"
       sodipodi:nodetypes="cccccssssssssssssssssssssssssssssscccccsssssssssssssssssssssccccccc" />
    <text
       id="text2315-5"
       y="-98.525879"
       x="378.21866"
       style="font-style:italic;font-variant:normal;font-weight:normal;font-stretch:normal;line-height:0%;font-family:Arial;text-align:start;writing-mode:lr-tb;text-anchor:start;fill:#000000;fill-opacity:1;stroke:none;stroke-width:1px;stroke-linecap:butt;stroke-linejoin:miter;stroke-opacity:1"
       xml:space="preserve"><tspan
         sodipodi:role="line"
         id="tspan2323-6"
         x="378.21866"
         y="-98.525879"
         style="font-size:16px;line-height:1.25">X''<tspan
   style="font-size:65%;baseline-shift:sub"
   id="tspan1">M</tspan></tspan></text>
    <text
       id="text2315-5-1"
       y="-98.525879"
       x="120.27896"
       style="font-style:italic;font-variant:normal;font-weight:normal;font-stretch:normal;line-height:0%;font-family:Arial;text-align:start;writing-mode:lr-tb;text-anchor:start;fill:#000000;fill-opacity:1;stroke:none;stroke-width:1px;stroke-linecap:butt;stroke-linejoin:miter;stroke-opacity:1"
       xml:space="preserve"><tspan
         sodipodi:role="line"
         id="tspan2323-6-15"
         x="120.27896"
         y="-98.525879"
         style="font-size:16px;line-height:1.25">N<tspan
   style="font-size:65%;baseline-shift:sub"
   id="tspan7">1</tspan></tspan></text>
    <text
       id="text2315-5-84"
       y="-98.525879"
       x="35.312767"
       style="font-style:italic;font-variant:normal;font-weight:normal;font-stretch:normal;line-height:0%;font-family:Arial;text-align:start;writing-mode:lr-tb;text-anchor:start;fill:#000000;fill-opacity:1;stroke:none;stroke-width:1px;stroke-linecap:butt;stroke-linejoin:miter;stroke-opacity:1"
       xml:space="preserve"><tspan
         sodipodi:role="line"
         id="tspan2323-6-8"
         x="35.312767"
         y="-98.525879"
         style="font-size:16px;line-height:1.25">U<tspan
   style="font-size:65%;baseline-shift:sub"
   id="tspan6">1</tspan></tspan></text>
    <text
       id="text2315-5-84-4"
       y="-98.525879"
       x="735.37097"
       style="font-style:italic;font-variant:normal;font-weight:normal;font-stretch:normal;line-height:0%;font-family:Arial;text-align:start;writing-mode:lr-tb;text-anchor:start;fill:#000000;fill-opacity:1;stroke:none;stroke-width:1px;stroke-linecap:butt;stroke-linejoin:miter;stroke-opacity:1"
       xml:space="preserve"><tspan
         sodipodi:role="line"
         id="tspan2323-6-8-7"
         x="735.37097"
         y="-98.525879"
         style="font-size:16px;line-height:1.25">U<tspan
   style="font-size:65%;baseline-shift:sub"
   id="tspan6-6">2</tspan></tspan></text>
    <text
       id="text2315-5-8"
       y="-214.16183"
       x="553.41943"
       style="font-style:italic;font-variant:normal;font-weight:normal;font-stretch:normal;line-height:0%;font-family:Arial;text-align:start;writing-mode:lr-tb;text-anchor:start;fill:#000000;fill-opacity:1;stroke:none;stroke-width:1px;stroke-linecap:butt;stroke-linejoin:miter;stroke-opacity:1"
       xml:space="preserve"><tspan
         sodipodi:role="line"
         id="tspan2323-6-1"
         x="553.41943"
         y="-214.16183"
         style="font-size:16px;line-height:1.25">X''<tspan
   style="font-size:65%;baseline-shift:sub"
   id="tspan1-2" /></tspan></text>
    <text
       id="text2315-5-3"
       y="-98.57666"
       x="536.27899"
       style="font-style:italic;font-variant:normal;font-weight:normal;font-stretch:normal;line-height:0%;font-family:Arial;text-align:start;writing-mode:lr-tb;text-anchor:start;fill:#000000;fill-opacity:1;stroke:none;stroke-width:1px;stroke-linecap:butt;stroke-linejoin:miter;stroke-opacity:1"
       xml:space="preserve"><tspan
         sodipodi:role="line"
         id="tspan2323-6-9"
         x="536.27899"
         y="-98.57666"
         style="font-size:16px;line-height:1.25">R''<tspan
   style="font-size:65%;baseline-shift:sub"
   id="tspan2">Fe</tspan></tspan></text>
    <text
       id="text2315-5-3-9"
       y="-214.16183"
       x="628.70392"
       style="font-style:italic;font-variant:normal;font-weight:normal;font-stretch:normal;line-height:0%;font-family:Arial;text-align:start;writing-mode:lr-tb;text-anchor:start;fill:#000000;fill-opacity:1;stroke:none;stroke-width:1px;stroke-linecap:butt;stroke-linejoin:miter;stroke-opacity:1"
       xml:space="preserve"><tspan
         sodipodi:role="line"
         id="tspan2323-6-9-3"
         x="628.70392"
         y="-214.16183"
         style="font-size:16px;line-height:1.25">R''<tspan
   style="font-size:65%;baseline-shift:sub"
   id="tspan2-9" /></tspan></text>
    <text
       id="text2315-5-3-9-0"
       y="-222.05013"
       x="692.48212"
       style="font-style:italic;font-variant:normal;font-weight:normal;font-stretch:normal;line-height:0%;font-family:Arial;text-align:start;writing-mode:lr-tb;text-anchor:start;fill:#000000;fill-opacity:1;stroke:none;stroke-width:1px;stroke-linecap:butt;stroke-linejoin:miter;stroke-opacity:1"
       xml:space="preserve"><tspan
         sodipodi:role="line"
         id="tspan2323-6-9-3-8"
         x="692.48212"
         y="-222.05013"
         style="font-size:16px;line-height:1.25"><tspan
           style="font-style:normal;font-variant:normal;font-weight:normal;font-stretch:normal;font-family:Arial;-inkscape-font-specification:Arial"
           id="tspan4">I</tspan><tspan
           style="font-size:65%;baseline-shift:sub"
           id="tspan3">2</tspan></tspan></text>
    <g
       id="g20053-7-3"
       transform="matrix(-2.4831195,0,0,-2.4831195,601.14365,430.70392)">
      <path
         sodipodi:nodetypes="cc"
         style="fill:#000000;fill-opacity:1;fill-rule:evenodd;stroke:#000000;stroke-width:0.5;stroke-linecap:butt;stroke-linejoin:miter;stroke-miterlimit:4;stroke-opacity:1;marker-start:none;marker-end:none"
         d="M 124.93008,237.82962 V 190.21383"
         id="path19084-5-6" />
      <path
         style="fill:#000000;fill-opacity:1;fill-rule:evenodd;stroke:none;stroke-width:1px;stroke-linecap:butt;stroke-linejoin:miter;stroke-opacity:1"
         d="m 124.92887,186.86216 -1.31539,4.90911 h 2.86084 z"
         id="path19086-3-7" />
    </g>
    <g
       id="g20077-1-5"
       transform="matrix(2.4831195,0,0,2.4831195,-235.86796,-642.85174)">
      <path
         sodipodi:nodetypes="cc"
         style="fill:#000000;fill-opacity:1;fill-rule:evenodd;stroke:#000000;stroke-width:0.5;stroke-linecap:butt;stroke-linejoin:miter;stroke-miterlimit:4;stroke-opacity:1;marker-start:none;marker-end:none"
         d="m 200.45221,173.82188 h 10.90278"
         id="path20045-2-3" />
      <path
         style="fill:#000000;fill-opacity:1;fill-rule:evenodd;stroke:none;stroke-width:1px;stroke-linecap:butt;stroke-linejoin:miter;stroke-opacity:1"
         d="m 215.18784,173.70685 -4.90911,-1.31539 v 2.86084 z"
         id="path20047-7-5" />
    </g>
    <circle
       style="fill:#ffffff;fill-opacity:1;fill-rule:evenodd;stroke:#000000;stroke-width:1.24156;stroke-linecap:square;stroke-linejoin:miter;stroke-miterlimit:4;stroke-dasharray:none;stroke-dashoffset:0;stroke-opacity:1"
       id="path6612-7-6"
       cx="-290.03552"
       cy="0.33281061"
       r="4.8397923"
       transform="scale(-1,1)" />
    <circle
       id="path5737-9-2"
       style="fill:#ffffff;fill-opacity:1;fill-rule:evenodd;stroke:#000000;stroke-width:1.24156;stroke-linecap:square;stroke-linejoin:miter;stroke-miterlimit:4;stroke-dasharray:none;stroke-dashoffset:0;stroke-opacity:1"
       cx="-290.03552"
       cy="-195.12817"
       r="4.8397923"
       transform="scale(-1,1)" />
    <text
       id="text2315-5-84-4-9"
       y="-97.197594"
       x="304.96121"
       style="font-style:italic;font-variant:normal;font-weight:normal;font-stretch:normal;line-height:0%;font-family:Arial;text-align:start;writing-mode:lr-tb;text-anchor:start;fill:#000000;fill-opacity:1;stroke:none;stroke-width:1px;stroke-linecap:butt;stroke-linejoin:miter;stroke-opacity:1"
       xml:space="preserve"><tspan
         sodipodi:role="line"
         id="tspan2323-6-8-7-1"
         x="304.96121"
         y="-97.197594"
         style="font-size:16px;line-height:1.25">U''<tspan
   style="font-size:65%;baseline-shift:sub"
   id="tspan6-6-2">1</tspan></tspan></text>
    <text
       id="text2315-5-3-9-0-7"
       y="-220.72183"
       x="262.07236"
       style="font-style:italic;font-variant:normal;font-weight:normal;font-stretch:normal;line-height:0%;font-family:Arial;text-align:start;writing-mode:lr-tb;text-anchor:start;fill:#000000;fill-opacity:1;stroke:none;stroke-width:1px;stroke-linecap:butt;stroke-linejoin:miter;stroke-opacity:1"
       xml:space="preserve"><tspan
         sodipodi:role="line"
         id="tspan2323-6-9-3-8-09"
         x="262.07236"
         y="-220.72183"
         style="font-size:16px;line-height:1.25"><tspan
           style="font-style:normal;font-variant:normal;font-weight:normal;font-stretch:normal;font-family:Arial;-inkscape-font-specification:Arial"
           id="tspan4-3">I''</tspan><tspan
           style="font-size:65%;baseline-shift:sub"
           id="tspan3-6">1</tspan></tspan></text>
    <g
       id="g20053-7-3-6"
       transform="matrix(-2.4831195,0,0,-2.4831195,601.14366,709.31937)">
      <path
         sodipodi:nodetypes="cc"
         style="fill:#000000;fill-opacity:1;fill-rule:evenodd;stroke:#000000;stroke-width:0.5;stroke-linecap:butt;stroke-linejoin:miter;stroke-miterlimit:4;stroke-opacity:1;marker-start:none;marker-end:none"
         d="M 124.93008,237.82962 V 190.21383"
         id="path19084-5-6-2" />
      <path
         style="fill:#000000;fill-opacity:1;fill-rule:evenodd;stroke:none;stroke-width:1px;stroke-linecap:butt;stroke-linejoin:miter;stroke-opacity:1"
         d="m 124.92887,186.86216 -1.31539,4.90911 h 2.86084 z"
         id="path19086-3-7-6" />
    </g>
    <g
       id="g20077-1-5-1"
       transform="matrix(2.4831195,0,0,2.4831195,-235.86795,-364.23629)">
      <path
         sodipodi:nodetypes="cc"
         style="fill:#000000;fill-opacity:1;fill-rule:evenodd;stroke:#000000;stroke-width:0.5;stroke-linecap:butt;stroke-linejoin:miter;stroke-miterlimit:4;stroke-opacity:1;marker-start:none;marker-end:none"
         d="m 200.45221,173.82188 h 10.90278"
         id="path20045-2-3-8" />
      <path
         style="fill:#000000;fill-opacity:1;fill-rule:evenodd;stroke:none;stroke-width:1px;stroke-linecap:butt;stroke-linejoin:miter;stroke-opacity:1"
         d="m 215.18784,173.70685 -4.90911,-1.31539 v 2.86084 z"
         id="path20047-7-5-7" />
    </g>
    <text
       id="text2315-5-84-4-9-0"
       y="181.41786"
       x="304.96121"
       style="font-style:italic;font-variant:normal;font-weight:normal;font-stretch:normal;line-height:0%;font-family:Arial;text-align:start;writing-mode:lr-tb;text-anchor:start;fill:#000000;fill-opacity:1;stroke:none;stroke-width:1px;stroke-linecap:butt;stroke-linejoin:miter;stroke-opacity:1"
       xml:space="preserve"><tspan
         sodipodi:role="line"
         id="tspan2323-6-8-7-1-2"
         x="304.96121"
         y="181.41786"
         style="font-size:16px;line-height:1.25">U''<tspan
   style="font-size:65%;baseline-shift:sub"
   id="tspan6-6-2-3">1</tspan></tspan></text>
    <text
       id="text2315-5-3-9-0-7-7"
       y="57.89362"
       x="262.07236"
       style="font-style:italic;font-variant:normal;font-weight:normal;font-stretch:normal;line-height:0%;font-family:Arial;text-align:start;writing-mode:lr-tb;text-anchor:start;fill:#000000;fill-opacity:1;stroke:none;stroke-width:1px;stroke-linecap:butt;stroke-linejoin:miter;stroke-opacity:1"
       xml:space="preserve"><tspan
         sodipodi:role="line"
         id="tspan2323-6-9-3-8-09-5"
         x="262.07236"
         y="57.89362"
         style="font-size:16px;line-height:1.25"><tspan
           style="font-style:normal;font-variant:normal;font-weight:normal;font-stretch:normal;font-family:Arial;-inkscape-font-specification:Arial"
           id="tspan4-3-9">I''</tspan><tspan
           style="font-size:65%;baseline-shift:sub"
           id="tspan3-6-2">1</tspan></tspan></text>
    <text
       id="text2315-5-3-9-0-5"
       y="-222.05013"
       x="47.497707"
       style="font-style:italic;font-variant:normal;font-weight:normal;font-stretch:normal;line-height:0%;font-family:Arial;text-align:start;writing-mode:lr-tb;text-anchor:start;fill:#000000;fill-opacity:1;stroke:none;stroke-width:1px;stroke-linecap:butt;stroke-linejoin:miter;stroke-opacity:1"
       xml:space="preserve"><tspan
         sodipodi:role="line"
         id="tspan2323-6-9-3-8-0"
         x="47.497707"
         y="-222.05013"
         style="font-style:normal;font-variant:normal;font-weight:normal;font-stretch:normal;font-size:16px;line-height:1.25;font-family:Arial;-inkscape-font-specification:Arial">I<tspan
   style="font-size:65%;baseline-shift:sub"
   id="tspan5">1</tspan></tspan></text>
    <text
       id="text2315-5-1-4"
       y="-98.525879"
       x="242.81895"
       style="font-style:italic;font-variant:normal;font-weight:normal;font-stretch:normal;line-height:0%;font-family:Arial;text-align:start;writing-mode:lr-tb;text-anchor:start;fill:#000000;fill-opacity:1;stroke:none;stroke-width:1px;stroke-linecap:butt;stroke-linejoin:miter;stroke-opacity:1"
       xml:space="preserve"><tspan
         sodipodi:role="line"
         id="tspan2323-6-15-4"
         x="242.81895"
         y="-98.525879"
         style="font-size:16px;line-height:1.25">N<tspan
   style="font-size:65%;baseline-shift:sub"
   id="tspan7-4">2</tspan></tspan></text>
    <path
       style="fill:#ffffff;fill-opacity:1;fill-rule:evenodd;stroke:#000000;stroke-width:1.5;stroke-linecap:square;stroke-linejoin:miter;stroke-miterlimit:4;stroke-dasharray:none;stroke-dashoffset:0;stroke-opacity:1"
       d="M 189.53917,120.13179 V 242.49254"
       id="rect7491-3-3" />
    <path
       style="fill:#ffffff;fill-opacity:1;fill-rule:evenodd;stroke:#000000;stroke-width:1.5;stroke-linecap:square;stroke-linejoin:miter;stroke-miterlimit:4;stroke-dasharray:none;stroke-dashoffset:0;stroke-opacity:1"
       d="M 200.63277,242.49254 V 120.13179"
       id="path8367-6-1" />
    <g
       id="g20053-7-7"
       transform="matrix(-2.4831195,0,0,-2.4831195,1031.5534,709.38635)">
      <path
         sodipodi:nodetypes="cc"
         style="fill:#000000;fill-opacity:1;fill-rule:evenodd;stroke:#000000;stroke-width:0.5;stroke-linecap:butt;stroke-linejoin:miter;stroke-miterlimit:4;stroke-opacity:1;marker-start:none;marker-end:none"
         d="M 124.93008,237.82962 V 190.21383"
         id="path19084-5-5" />
      <path
         style="fill:#000000;fill-opacity:1;fill-rule:evenodd;stroke:none;stroke-width:1px;stroke-linecap:butt;stroke-linejoin:miter;stroke-opacity:1"
         d="m 124.92887,186.86216 -1.31539,4.90911 h 2.86084 z"
         id="path19086-3-9" />
    </g>
    <g
       id="g20077-1-6"
       transform="matrix(2.4831195,0,0,2.4831195,194.54179,-364.16931)">
      <path
         sodipodi:nodetypes="cc"
         style="fill:#000000;fill-opacity:1;fill-rule:evenodd;stroke:#000000;stroke-width:0.5;stroke-linecap:butt;stroke-linejoin:miter;stroke-miterlimit:4;stroke-opacity:1;marker-start:none;marker-end:none"
         d="m 200.45221,173.82188 h 10.90278"
         id="path20045-2-2" />
      <path
         style="fill:#000000;fill-opacity:1;fill-rule:evenodd;stroke:none;stroke-width:1px;stroke-linecap:butt;stroke-linejoin:miter;stroke-opacity:1"
         d="m 215.18784,173.70685 -4.90911,-1.31539 v 2.86084 z"
         id="path20047-7-1" />
    </g>
    <path
       id="path7564-6-7"
       style="fill:none;fill-opacity:1;stroke:#000000;stroke-width:1.5;stroke-linecap:square;stroke-linejoin:round;stroke-miterlimit:4;stroke-dashoffset:0;stroke-opacity:1"
       d="m 69.467481,83.871117 h 95.913379 v 33.689063 0 c 8.77704,0 15.90044,7.27512 15.90044,16.23911 0,8.96398 -7.1234,16.23907 -15.90044,16.23907 -5.1587,0 -12.79643,-2.654 -12.80822,-6.72497 -0.0118,-4.071 7.55193,-6.74339 12.80822,-6.74339 8.77704,0 15.90044,7.27512 15.90044,16.23911 0,8.96396 -7.1234,16.23908 -15.90044,16.23908 -5.26947,0 -12.31899,-2.65351 -12.50585,-6.5983 -0.18688,-3.94478 7.36329,-6.87007 12.50585,-6.87007 8.77704,0 15.90044,7.27512 15.90044,16.23909 0,8.96398 -7.1234,16.23908 -15.90044,16.23908 -5.19435,0 -12.69594,-2.39957 -12.72677,-6.45723 -0.0308,-4.05767 7.30512,-7.01115 12.72677,-7.01115 8.77704,0 15.90044,7.2751 15.90044,16.23909 0,8.96397 -7.1234,16.23908 -15.90044,16.23908 -5.34549,0 -12.96866,-2.77675 -12.93332,-6.88685 0.0353,-4.11009 7.70785,-6.58149 12.93332,-6.58149 8.77704,0 15.90044,7.27512 15.90044,16.23909 0,8.96398 -7.1234,16.2391 -15.90044,16.2391 -5.17295,0 -12.64404,-2.60146 -12.64461,-6.81657 -6e-4,-4.21514 7.40706,-6.6518 12.64461,-6.6518 8.77704,0 15.90044,7.27512 15.90044,16.23908 0,8.96399 -7.1234,16.23911 -15.90044,16.23911 v 33.90854 H 69.467481"
       sodipodi:nodetypes="ccccsssssssssssssssssssssccs" />
    <g
       id="g20071-6-8"
       transform="matrix(-2.4831195,0,0,-2.4831195,374.88858,709.02216)">
      <path
         id="path20073-1-5"
         d="M 124.93008,237.82962 V 190.21383"
         style="fill:#000000;fill-opacity:1;fill-rule:evenodd;stroke:#000000;stroke-width:0.5;stroke-linecap:butt;stroke-linejoin:miter;stroke-miterlimit:4;stroke-opacity:1;marker-start:none;marker-end:none"
         sodipodi:nodetypes="cc" />
      <path
         id="path20075-8-7"
         d="m 124.92887,186.86216 -1.31539,4.90911 h 2.86084 z"
         style="fill:#000000;fill-opacity:1;fill-rule:evenodd;stroke:none;stroke-width:1px;stroke-linecap:butt;stroke-linejoin:miter;stroke-opacity:1" />
    </g>
    <circle
       style="fill:#ffffff;fill-opacity:1;fill-rule:evenodd;stroke:#000000;stroke-width:1.24156;stroke-linecap:square;stroke-linejoin:miter;stroke-miterlimit:4;stroke-dasharray:none;stroke-dashoffset:0;stroke-opacity:1"
       id="path6612-7-4"
       cx="-720.44525"
       cy="279.01523"
       r="4.8397923"
       transform="scale(-1,1)" />
    <circle
       id="path5737-9-1"
       style="fill:#ffffff;fill-opacity:1;fill-rule:evenodd;stroke:#000000;stroke-width:1.24156;stroke-linecap:square;stroke-linejoin:miter;stroke-miterlimit:4;stroke-dasharray:none;stroke-dashoffset:0;stroke-opacity:1"
       cx="-720.44525"
       cy="83.554253"
       r="4.8397923"
       transform="scale(-1,1)" />
    <circle
       id="path6616-2-8"
       style="fill:none;fill-opacity:1;fill-rule:evenodd;stroke:#000000;stroke-width:1.24156;stroke-linecap:square;stroke-linejoin:miter;stroke-miterlimit:4;stroke-dasharray:none;stroke-dashoffset:0;stroke-opacity:1"
       cx="-64.264542"
       cy="279.01523"
       r="4.8397923"
       transform="scale(-1,1)" />
    <circle
       style="fill:none;fill-opacity:1;fill-rule:evenodd;stroke:#000000;stroke-width:1.24156;stroke-linecap:square;stroke-linejoin:miter;stroke-miterlimit:4;stroke-dasharray:none;stroke-dashoffset:0;stroke-opacity:1"
       id="path6614-0-5"
       cx="-64.264542"
       cy="83.554253"
       r="4.8397923"
       transform="scale(-1,1)" />
    <g
       transform="matrix(2.4831195,0,0,2.4831195,-451.45823,-364.16931)"
       id="g7215-9-9">
      <path
         id="path7217-7-7"
         d="m 200.45221,173.82188 h 10.90278"
         style="fill:#000000;fill-opacity:1;fill-rule:evenodd;stroke:#000000;stroke-width:0.5;stroke-linecap:butt;stroke-linejoin:miter;stroke-miterlimit:4;stroke-opacity:1;marker-start:none;marker-end:none"
         sodipodi:nodetypes="cc" />
      <path
         id="path7219-3-5"
         d="m 215.18784,173.70685 -4.90911,-1.31539 v 2.86084 z"
         style="fill:#000000;fill-opacity:1;fill-rule:evenodd;stroke:none;stroke-width:1px;stroke-linecap:butt;stroke-linejoin:miter;stroke-opacity:1" />
    </g>
    <path
       id="path7290-1-3"
       style="fill:none;fill-opacity:1;stroke:#000000;stroke-width:1.5;stroke-linecap:square;stroke-linejoin:round;stroke-miterlimit:4;stroke-dashoffset:0;stroke-opacity:1"
       d="m 518.31028,151.38583 v -33.53541 h -85.67243 v 32.5654 0 c -4.8039,0 -8.70273,3.98187 -8.70273,8.8881 0,4.90623 3.89883,8.88808 8.70273,8.88808 2.82351,0 7.00383,-1.45261 7.01029,-3.68076 0.006,-2.22817 -4.13337,-3.69084 -7.01029,-3.69084 -4.8039,0 -8.70273,3.98187 -8.70273,8.8881 0,4.90621 3.89883,8.88808 8.70273,8.88808 2.88413,0 6.74251,-1.45234 6.8448,-3.61142 0.10228,-2.15909 -4.03014,-3.76018 -6.8448,-3.76018 -4.8039,0 -8.70273,3.98187 -8.70273,8.88809 0,4.90622 3.89883,8.88808 8.70273,8.88808 2.84302,0 6.94883,-1.31335 6.96571,-3.53421 0.0169,-2.22087 -3.99828,-3.83739 -6.96571,-3.83739 -4.8039,0 -8.70273,3.98185 -8.70273,8.88808 0,4.90622 3.89883,8.88808 8.70273,8.88808 2.92573,0 7.0981,-1.51979 7.07875,-3.76935 -0.0193,-2.24956 -4.21871,-3.60223 -7.07875,-3.60223 -4.8039,0 -8.70273,3.98187 -8.70273,8.88809 0,4.90622 3.89883,8.88809 8.70273,8.88809 2.83131,0 6.92042,-1.42385 6.92074,-3.73089 3.2e-4,-2.30706 -4.05408,-3.64071 -6.92074,-3.64071 -4.8039,0 -8.70273,3.98187 -8.70273,8.88808 0,4.90623 3.89883,8.8881 8.70273,8.8881 v 32.55904 h 85.67243 V 211.23851 M 475.94467,83.912447 v 33.797493 m 0,135.48856 v 25.61469 m 49.8472,-127.42736 H 510.8287 v 59.85268 h 14.96317 z"
       sodipodi:nodetypes="cccccsssssssssssssssssssssccccccccccccc" />
    <path
       id="path3254-4-8"
       style="fill:none;fill-opacity:1;stroke:#000000;stroke-width:1.5;stroke-linecap:square;stroke-linejoin:round;stroke-miterlimit:4;stroke-dashoffset:0;stroke-opacity:1"
       d="m 456.81478,83.871062 258.40995,5.5e-5 m 0,195.124873 H 224.1711 v -14.89872 c -8.77703,0 -15.90043,-7.27512 -15.90043,-16.23911 0,-8.96399 7.1234,-16.23909 15.90043,-16.23909 4.97462,0 12.86567,3.03054 12.83649,6.86313 -0.0292,3.83259 -7.59075,6.60525 -12.83649,6.60525 -8.77703,0 -15.90043,-7.27512 -15.90043,-16.23911 0,-8.96396 7.1234,-16.23908 15.90043,-16.23908 5.23755,0 12.64523,2.43666 12.64462,6.6518 -5.7e-4,4.21511 -7.47165,6.81657 -12.64462,6.81657 -8.77703,0 -15.90043,-7.27512 -15.90043,-16.2391 0,-8.96397 7.1234,-16.23909 15.90043,-16.23909 5.22548,0 12.898,2.4714 12.93334,6.58149 0.0353,4.1101 -7.58784,6.88685 -12.93334,6.88685 -8.77703,0 -15.90043,-7.27511 -15.90043,-16.23908 0,-8.96399 7.1234,-16.23909 15.90043,-16.23909 5.42168,0 12.75764,2.95348 12.72679,7.01115 -0.0308,4.05766 -7.53242,6.45723 -12.72679,6.45723 -8.77703,0 -15.90043,-7.2751 -15.90043,-16.23908 0,-8.96397 7.1234,-16.23909 15.90043,-16.23909 5.14258,0 12.69274,2.92529 12.50587,6.87007 -0.18686,3.94479 -7.23639,6.5983 -12.50587,6.5983 -8.77703,0 -15.90043,-7.27512 -15.90043,-16.23908 0,-8.96399 7.1234,-16.23911 15.90043,-16.23911 5.2563,0 12.82001,2.67239 12.80824,6.74339 -0.0118,4.07097 -7.64953,6.72497 -12.80824,6.72497 -8.77703,0 -15.90043,-7.27509 -15.90043,-16.23907 0,-8.96399 7.1234,-16.23911 15.90043,-16.23911 5.22154,0 12.75591,2.55982 12.7764,6.7078 0.0205,4.14796 -7.53175,6.76059 -12.7764,6.76059 -8.77703,0 -15.90043,-7.27512 -15.90043,-16.23911 0,-8.96396 7.37954,-16.502183 15.90043,-16.239083 v -14.79481 l 91.89357,0.115495"
       sodipodi:nodetypes="cccccsssssssssssssssssssssssssssssccc" />
    <text
       id="text2315-5-83"
       y="181.48483"
       x="378.21866"
       style="font-style:italic;font-variant:normal;font-weight:normal;font-stretch:normal;line-height:0%;font-family:Arial;text-align:start;writing-mode:lr-tb;text-anchor:start;fill:#000000;fill-opacity:1;stroke:none;stroke-width:1px;stroke-linecap:butt;stroke-linejoin:miter;stroke-opacity:1"
       xml:space="preserve"><tspan
         sodipodi:role="line"
         id="tspan2323-6-18"
         x="378.21866"
         y="181.48483"
         style="font-size:16px;line-height:1.25">X''<tspan
   style="font-size:65%;baseline-shift:sub"
   id="tspan1-9">M</tspan></tspan></text>
    <text
       id="text2315-5-1-6"
       y="181.48483"
       x="120.27895"
       style="font-style:italic;font-variant:normal;font-weight:normal;font-stretch:normal;line-height:0%;font-family:Arial;text-align:start;writing-mode:lr-tb;text-anchor:start;fill:#000000;fill-opacity:1;stroke:none;stroke-width:1px;stroke-linecap:butt;stroke-linejoin:miter;stroke-opacity:1"
       xml:space="preserve"><tspan
         sodipodi:role="line"
         id="tspan2323-6-15-43"
         x="120.27895"
         y="181.48483"
         style="font-size:16px;line-height:1.25">N<tspan
   style="font-size:65%;baseline-shift:sub"
   id="tspan7-3">1</tspan></tspan></text>
    <text
       id="text2315-5-84-3"
       y="181.48483"
       x="35.312771"
       style="font-style:italic;font-variant:normal;font-weight:normal;font-stretch:normal;line-height:0%;font-family:Arial;text-align:start;writing-mode:lr-tb;text-anchor:start;fill:#000000;fill-opacity:1;stroke:none;stroke-width:1px;stroke-linecap:butt;stroke-linejoin:miter;stroke-opacity:1"
       xml:space="preserve"><tspan
         sodipodi:role="line"
         id="tspan2323-6-8-8"
         x="35.312771"
         y="181.48483"
         style="font-size:16px;line-height:1.25">U<tspan
   style="font-size:65%;baseline-shift:sub"
   id="tspan6-60">1</tspan></tspan></text>
    <text
       id="text2315-5-84-4-4"
       y="181.48483"
       x="735.37091"
       style="font-style:italic;font-variant:normal;font-weight:normal;font-stretch:normal;line-height:0%;font-family:Arial;text-align:start;writing-mode:lr-tb;text-anchor:start;fill:#000000;fill-opacity:1;stroke:none;stroke-width:1px;stroke-linecap:butt;stroke-linejoin:miter;stroke-opacity:1"
       xml:space="preserve"><tspan
         sodipodi:role="line"
         id="tspan2323-6-8-7-8"
         x="735.37091"
         y="181.48483"
         style="font-size:16px;line-height:1.25">U<tspan
   style="font-size:65%;baseline-shift:sub"
   id="tspan6-6-8">2</tspan></tspan></text>
    <text
       id="text2315-5-8-8"
       y="69.40139"
       x="345.6409"
       style="font-style:italic;font-variant:normal;font-weight:normal;font-stretch:normal;line-height:0%;font-family:Arial;text-align:start;writing-mode:lr-tb;text-anchor:start;fill:#000000;fill-opacity:1;stroke:none;stroke-width:1px;stroke-linecap:butt;stroke-linejoin:miter;stroke-opacity:1"
       xml:space="preserve"><tspan
         sodipodi:role="line"
         id="tspan2323-6-1-9"
         x="345.6409"
         y="69.40139"
         style="font-size:16px;line-height:1.25">X''<tspan
   style="font-size:65%;baseline-shift:sub"
   id="tspan1-2-7" /></tspan></text>
    <text
       id="text2315-5-3-7"
       y="181.43405"
       x="536.27893"
       style="font-style:italic;font-variant:normal;font-weight:normal;font-stretch:normal;line-height:0%;font-family:Arial;text-align:start;writing-mode:lr-tb;text-anchor:start;fill:#000000;fill-opacity:1;stroke:none;stroke-width:1px;stroke-linecap:butt;stroke-linejoin:miter;stroke-opacity:1"
       xml:space="preserve"><tspan
         sodipodi:role="line"
         id="tspan2323-6-9-6"
         x="536.27893"
         y="181.43405"
         style="font-size:16px;line-height:1.25">R''<tspan
   style="font-size:65%;baseline-shift:sub"
   id="tspan2-4">Fe</tspan></tspan></text>
    <text
       id="text2315-5-3-9-3"
       y="69.40139"
       x="420.92538"
       style="font-style:italic;font-variant:normal;font-weight:normal;font-stretch:normal;line-height:0%;font-family:Arial;text-align:start;writing-mode:lr-tb;text-anchor:start;fill:#000000;fill-opacity:1;stroke:none;stroke-width:1px;stroke-linecap:butt;stroke-linejoin:miter;stroke-opacity:1"
       xml:space="preserve"><tspan
         sodipodi:role="line"
         id="tspan2323-6-9-3-0"
         x="420.92538"
         y="69.40139"
         style="font-size:16px;line-height:1.25">R''<tspan
   style="font-size:65%;baseline-shift:sub"
   id="tspan2-9-3" /></tspan></text>
    <text
       id="text2315-5-3-9-0-0"
       y="57.960583"
       x="692.48206"
       style="font-style:italic;font-variant:normal;font-weight:normal;font-stretch:normal;line-height:0%;font-family:Arial;text-align:start;writing-mode:lr-tb;text-anchor:start;fill:#000000;fill-opacity:1;stroke:none;stroke-width:1px;stroke-linecap:butt;stroke-linejoin:miter;stroke-opacity:1"
       xml:space="preserve"><tspan
         sodipodi:role="line"
         id="tspan2323-6-9-3-8-9"
         x="692.48206"
         y="57.960583"
         style="font-size:16px;line-height:1.25"><tspan
           style="font-style:normal;font-variant:normal;font-weight:normal;font-stretch:normal;font-family:Arial;-inkscape-font-specification:Arial"
           id="tspan4-2">I</tspan><tspan
           style="font-size:65%;baseline-shift:sub"
           id="tspan3-5">2</tspan></tspan></text>
    <text
       id="text2315-5-3-9-0-5-4"
       y="57.960583"
       x="47.497707"
       style="font-style:italic;font-variant:normal;font-weight:normal;font-stretch:normal;line-height:0%;font-family:Arial;text-align:start;writing-mode:lr-tb;text-anchor:start;fill:#000000;fill-opacity:1;stroke:none;stroke-width:1px;stroke-linecap:butt;stroke-linejoin:miter;stroke-opacity:1"
       xml:space="preserve"><tspan
         sodipodi:role="line"
         id="tspan2323-6-9-3-8-0-0"
         x="47.497707"
         y="57.960583"
         style="font-style:normal;font-variant:normal;font-weight:normal;font-stretch:normal;font-size:16px;line-height:1.25;font-family:Arial;-inkscape-font-specification:Arial">I<tspan
   style="font-size:65%;baseline-shift:sub"
   id="tspan5-5">1</tspan></tspan></text>
    <text
       id="text2315-5-1-4-9"
       y="181.48483"
       x="242.81895"
       style="font-style:italic;font-variant:normal;font-weight:normal;font-stretch:normal;line-height:0%;font-family:Arial;text-align:start;writing-mode:lr-tb;text-anchor:start;fill:#000000;fill-opacity:1;stroke:none;stroke-width:1px;stroke-linecap:butt;stroke-linejoin:miter;stroke-opacity:1"
       xml:space="preserve"><tspan
         sodipodi:role="line"
         id="tspan2323-6-15-4-4"
         x="242.81895"
         y="181.48483"
         style="font-size:16px;line-height:1.25">N<tspan
   style="font-size:65%;baseline-shift:sub"
   id="tspan7-4-6">2</tspan></tspan></text>
    <path
       d="m 456.88546,83.831906 m -140.695,0 v 0 c 0,-4.8039 3.98187,-8.70273 8.8881,-8.70273 4.90623,0 8.88808,3.89883 8.88808,8.70273 0,2.823502 -1.45261,7.003832 -3.68076,7.010282 -2.22817,0.006 -3.69084,-4.13337 -3.69084,-7.010282 0,-4.8039 3.98187,-8.70273 8.8881,-8.70273 4.90621,0 8.88808,3.89883 8.88808,8.70273 0,2.884122 -1.45234,6.742512 -3.61142,6.844792 -2.15909,0.10228 -3.76018,-4.03013 -3.76018,-6.844792 0,-4.8039 3.98187,-8.70273 8.88809,-8.70273 4.90622,0 8.88808,3.89883 8.88808,8.70273 0,2.843012 -1.31335,6.948832 -3.53421,6.965702 -2.22087,0.0169 -3.83739,-3.99828 -3.83739,-6.965702 0,-4.8039 3.98185,-8.70273 8.88808,-8.70273 4.90622,0 8.88808,3.89883 8.88808,8.70273 0,2.925732 -1.51979,7.098092 -3.76935,7.078752 -2.24956,-0.0193 -3.60223,-4.21871 -3.60223,-7.078752 0,-4.8039 3.98187,-8.70273 8.88809,-8.70273 4.90622,0 8.88809,3.89883 8.88809,8.70273 0,2.831302 -1.42385,6.920422 -3.73089,6.920732 -2.30706,3.3e-4 -3.64071,-4.05408 -3.64071,-6.920732 0,-4.8039 3.98187,-8.70273 8.88808,-8.70273 4.90623,0 8.8881,3.89883 8.8881,8.70273 h 11.04325 m 0,-7.6955 v 14.963172 h 59.85268 V 76.136406 Z"
       style="fill:none;fill-opacity:1;stroke:#000000;stroke-width:1.5;stroke-linecap:square;stroke-linejoin:round;stroke-miterlimit:4;stroke-dashoffset:0;stroke-opacity:1"
       id="path1" />
    <circle
       style="fill:#ffffff;fill-opacity:1;fill-rule:evenodd;stroke:#000000;stroke-width:1.24156;stroke-linecap:square;stroke-linejoin:miter;stroke-miterlimit:4;stroke-dasharray:none;stroke-dashoffset:0;stroke-opacity:1"
       id="path6612-7-6-9"
       cx="-290.03552"
       cy="278.94824"
       r="4.8397923"
       transform="scale(-1,1)" />
    <circle
       id="path5737-9-2-2"
       style="fill:#ffffff;fill-opacity:1;fill-rule:evenodd;stroke:#000000;stroke-width:1.24156;stroke-linecap:square;stroke-linejoin:miter;stroke-miterlimit:4;stroke-dasharray:none;stroke-dashoffset:0;stroke-opacity:1"
       cx="-290.03552"
       cy="83.487274"
       r="4.8397923"
       transform="scale(-1,1)" />
  </g>
</svg>
